<svg aria-hidden="true" style="position: absolute; width: 0; height: 0; overflow: hidden;" version="1.1" xmlns="http://www.w3.org/2000/svg" xmlns:xlink="http://www.w3.org/1999/xlink">
<defs>
<symbol id="icon--ucommerce" viewBox="0 0 53 32">
<path d="M33.616 1.041c-0.11-0.082-0.274-0.082-0.356 0.027l-0.931 0.931c-0.055 0.055-0.082 0.137-0.082 0.219s0.055 0.137 0.11 0.192c4.055 3.233 4.74 9.151 1.507 13.233s-9.151 4.74-13.233 1.507-4.74-9.151-1.507-13.233c0.438-0.548 0.959-1.069 1.507-1.507 0.11-0.082 0.137-0.247 0.055-0.356l-0.027-0.027-0.931-0.959c-0.082-0.11-0.247-0.11-0.356-0.027-4.822 3.945-5.507 11.041-1.589 15.836s11.041 5.507 15.836 1.589 5.507-11.041 1.589-15.836c-0.466-0.575-1.014-1.096-1.589-1.589z"></path>
<path d="M26.493 21.151c-6.274 0-11.397-5.096-11.397-11.37 0-3.425 1.534-6.658 4.164-8.822 0.137-0.137 0.384-0.11 0.521 0.027l0.959 0.932c0.137 0.137 0.137 0.411 0 0.548 0 0-0.027 0.027-0.055 0.027-4.027 3.205-4.685 9.014-1.479 13.041s9.014 4.685 13.041 1.479 4.685-9.014 1.479-13.041c-0.438-0.548-0.931-1.041-1.479-1.479-0.164-0.137-0.192-0.384-0.055-0.548 0-0.027 0.027-0.027 0.027-0.055l0.931-0.959c0.137-0.137 0.356-0.137 0.521-0.027v0c4.877 3.973 5.589 11.151 1.616 16-2.164 2.712-5.397 4.247-8.795 4.247zM19.534 1.123c-0.027 0-0.055 0.027-0.082 0.027-4.767 3.89-5.479 10.904-1.589 15.644s10.904 5.479 15.671 1.589 5.479-10.904 1.589-15.671c-0.466-0.575-1.014-1.096-1.589-1.589v0c-0.055-0.055-0.137-0.055-0.192 0l-0.931 0.959c-0.027 0.027-0.055 0.055-0.055 0.11s0.027 0.055 0.055 0.11c4.137 3.288 4.822 9.288 1.534 13.397s-9.26 4.822-13.397 1.534-4.822-9.288-1.534-13.397c0.438-0.575 0.959-1.096 1.534-1.534 0.027-0.027 0.055-0.055 0.055-0.11s-0.027-0.082-0.055-0.11l-0.931-0.931c-0.027 0-0.055-0.027-0.082-0.027z"></path>
<path d="M26.493 16.74c1.781 0 3.479-0.685 4.795-1.918 0.11-0.11 0.11-0.274 0-0.384v0l-0.931-0.931c-0.11-0.11-0.247-0.11-0.356 0-2.055 1.945-5.315 1.863-7.26-0.219-1.945-2.055-1.863-5.315 0.192-7.26 1.973-1.863 5.069-1.863 7.014 0 0.11 0.11 0.247 0.11 0.356 0l0.931-0.959c0.11-0.11 0.11-0.274 0-0.384v0c-2.795-2.63-7.205-2.521-9.836 0.274s-2.521 7.205 0.274 9.863c1.315 1.233 3.041 1.918 4.822 1.918z"></path>
<path d="M26.493 16.877c-3.945 0.027-7.123-3.151-7.123-7.096-0.027-3.918 3.151-7.123 7.069-7.123 1.836 0 3.589 0.712 4.931 1.945 0.137 0.137 0.137 0.411 0 0.548v0l-0.931 0.931c-0.137 0.137-0.384 0.137-0.548 0-2.027-1.89-5.178-1.781-7.069 0.219s-1.808 5.178 0.192 7.069c1.945 1.808 4.931 1.808 6.849 0 0.137-0.137 0.411-0.137 0.548 0.027l0.931 0.931c0.137 0.137 0.137 0.411 0 0.548v0c-1.288 1.288-3.041 2-4.849 2zM26.493 2.904c-3.781-0.027-6.877 3.041-6.904 6.822 0 3.781 3.041 6.877 6.822 6.904 1.753 0 3.479-0.658 4.767-1.89 0.055-0.055 0.055-0.137 0-0.192v0l-0.931-0.931c-0.055-0.055-0.137-0.055-0.192 0-2.11 2-5.452 1.89-7.425-0.247s-1.89-5.452 0.247-7.425c2.027-1.918 5.205-1.918 7.205 0 0.055 0.055 0.137 0.055 0.192 0l0.931-0.931c0.055-0.055 0.055-0.137 0-0.192v0c-1.288-1.233-2.959-1.918-4.712-1.918v0z"></path>
<path d="M5.178 26.164h-1.151c-0.055 0-0.082 0.055-0.082 0.082v0 2.849c0.027 0.329-0.082 0.658-0.274 0.904-0.164 0.219-0.411 0.329-0.685 0.329-0.274 0.027-0.548-0.11-0.712-0.329-0.192-0.274-0.274-0.575-0.274-0.904v-2.822c0-0.055-0.055-0.082-0.082-0.082v0h-1.151c-0.055 0-0.082 0.055-0.082 0.082v0 2.877c0 0.767 0.219 1.37 0.658 1.781 0.959 0.849 2.356 0.849 3.315 0 0.438-0.411 0.658-1.014 0.658-1.781v-2.877c-0.027-0.082-0.055-0.11-0.137-0.11v0z"></path>
<path d="M8.877 26.055c-0.74-0.027-1.452 0.274-1.973 0.795-0.548 0.521-0.822 1.233-0.822 1.973-0.027 0.74 0.274 1.452 0.795 1.973 0.548 0.521 1.288 0.795 2.027 0.795 0.822 0 1.534-0.356 2.137-1.014 0.027-0.027 0.027-0.082 0-0.11l-0.74-0.767c-0.027-0.027-0.055-0.027-0.082-0.027s-0.055 0.027-0.082 0.055c-0.329 0.411-0.795 0.658-1.315 0.63-0.384 0.027-0.74-0.137-0.986-0.411-0.274-0.301-0.411-0.685-0.411-1.096-0.027-0.411 0.137-0.795 0.438-1.069 0.274-0.274 0.658-0.411 1.041-0.411 0.521 0 0.986 0.247 1.288 0.658 0.027 0.027 0.055 0.027 0.082 0.027s0.055-0.027 0.082-0.027l0.712-0.822c0.027-0.027 0.027-0.082 0-0.11-0.521-0.712-1.342-1.069-2.192-1.041z"></path>
<path d="M14.356 26.055c-0.74-0.027-1.452 0.274-1.973 0.795s-0.822 1.233-0.822 1.973c-0.027 0.74 0.274 1.452 0.822 1.973 1.123 1.041 2.849 1.041 3.973 0 0.521-0.521 0.822-1.233 0.822-1.973 0.027-0.74-0.274-1.452-0.822-1.973s-1.26-0.822-2-0.795zM15.781 28.795c0.027 0.411-0.137 0.822-0.411 1.123-0.521 0.575-1.37 0.603-1.945 0.11-0.027-0.027-0.055-0.055-0.11-0.11-0.548-0.63-0.548-1.589 0-2.219 0.493-0.548 1.37-0.603 1.918-0.11 0.055 0.027 0.082 0.082 0.11 0.11 0.301 0.301 0.438 0.685 0.438 1.096z"></path>
<path d="M23.863 26.164h-1.534c-0.027 0-0.082 0.027-0.082 0.055l-1.26 2.658-1.26-2.685c-0.027-0.027-0.055-0.055-0.082-0.055h-1.562c-0.055 0-0.082 0.055-0.082 0.082v0 5.151c0 0.055 0.055 0.082 0.082 0.082v0h1.151c0.055 0 0.082-0.055 0.082-0.082v0-2.849l1.205 2.466c0.027 0.027 0.055 0.055 0.082 0.055h0.685c0.027 0 0.055-0.027 0.082-0.055l1.205-2.466v2.849c0 0.055 0.055 0.082 0.082 0.082v0h1.151c0.055 0 0.082-0.055 0.082-0.082v0-5.096c0.082-0.055 0.027-0.11-0.027-0.11z"></path>
<path d="M31.014 26.164h-1.534c-0.027 0-0.055 0.027-0.082 0.055l-1.26 2.658-1.26-2.658c-0.027-0.027-0.055-0.055-0.082-0.055h-1.562c-0.055 0-0.082 0.055-0.082 0.082v0 5.151c0 0.055 0.055 0.082 0.082 0.082v0h1.151c0.055 0 0.082-0.055 0.082-0.082v0-2.849l1.205 2.466c0.027 0.027 0.055 0.055 0.082 0.055h0.685c0.027 0 0.055-0.027 0.082-0.055l1.205-2.466v2.849c0 0.055 0.055 0.082 0.082 0.082v0h1.151c0.055 0 0.082-0.055 0.082-0.082v0-5.123c0.082-0.082 0.027-0.11-0.027-0.11v0z"></path>
<path d="M36.055 30.301h-2.548v-0.877h2.219c0.055 0 0.082-0.055 0.082-0.082v0-0.986c0-0.055-0.055-0.082-0.082-0.082v0h-2.219v-0.877h2.466c0.055 0 0.082-0.055 0.082-0.082v0-1.014c0-0.055-0.055-0.082-0.082-0.082v0h-3.699c-0.055 0-0.082 0.055-0.082 0.082v0 5.151c0 0.055 0.055 0.082 0.082 0.082v0h3.808c0.055 0 0.082-0.055 0.082-0.082v0-1.041c0-0.055-0.055-0.11-0.11-0.11v0z"></path>
<path d="M40.658 29.616c0.603-0.274 0.931-0.822 0.931-1.644 0-0.63-0.192-1.069-0.548-1.37s-0.959-0.411-1.781-0.411h-1.945c-0.055 0-0.082 0.055-0.082 0.082v0 5.151c0 0.055 0.055 0.082 0.082 0.082v0h1.151c0.055 0 0.082-0.055 0.082-0.082v0-1.562h0.658l1.123 1.616c0.027 0.027 0.055 0.055 0.082 0.055h1.425c0.055 0 0.082-0.055 0.082-0.082s0-0.055-0.027-0.055l-1.233-1.781zM40.219 27.973c0.027 0.192-0.055 0.384-0.192 0.548-0.11 0.11-0.384 0.164-0.74 0.164h-0.74v-1.342h0.767c0.356 0 0.575 0.055 0.712 0.137 0.164 0.082 0.192 0.247 0.192 0.493v0z"></path>
<path d="M45.205 26.055c-0.74-0.027-1.452 0.274-1.973 0.795-0.548 0.521-0.822 1.233-0.822 1.973-0.027 0.74 0.274 1.452 0.795 1.973 0.548 0.521 1.288 0.795 2.027 0.795 0.822 0 1.534-0.356 2.137-1.014 0.027-0.027 0.027-0.082 0-0.11l-0.74-0.74c-0.027-0.027-0.055-0.027-0.082-0.027s-0.055 0.027-0.082 0.027c-0.329 0.411-0.795 0.658-1.315 0.63-0.384 0.027-0.74-0.137-0.986-0.411-0.274-0.274-0.411-0.685-0.411-1.069-0.027-0.411 0.137-0.795 0.438-1.069 0.274-0.274 0.658-0.411 1.041-0.411 0.521 0 0.986 0.247 1.288 0.658 0.027 0.027 0.055 0.027 0.082 0.027s0.055-0.027 0.082-0.027l0.712-0.822c0.027-0.027 0.027-0.082 0-0.11-0.548-0.74-1.342-1.096-2.192-1.069z"></path>
<path d="M52.192 30.301h-2.548v-0.877h2.219c0.055 0 0.082-0.055 0.082-0.082v0-0.986c0-0.055-0.055-0.082-0.082-0.082v0h-2.219v-0.877h2.466c0.055 0 0.082-0.055 0.082-0.082v0-1.014c0-0.055-0.055-0.082-0.082-0.082v0h-3.699c-0.055 0-0.082 0.055-0.082 0.082v0 5.151c0 0.055 0.055 0.082 0.082 0.082v0h3.808c0.055 0 0.082-0.055 0.082-0.082v0-1.041c-0.027-0.055-0.082-0.11-0.11-0.11v0z"></path>
</symbol>
<symbol id="icon--umbraco" viewBox="0 0 32 32">
<path d="M8.855 13.913c0.004-3.99 3.244-7.22 7.234-7.215s7.219 3.244 7.214 7.233-3.238 7.214-7.224 7.214c-3.992-0.002-7.226-3.24-7.224-7.232zM15.932 16.387c-0.062 0.002-0.134 0.003-0.207 0.003-0.518 0-1.023-0.056-1.509-0.161l0.047 0.009c-0.411-0.086-0.743-0.36-0.909-0.725l-0.003-0.008q-0.245-0.565-0.237-1.743c0.003-0.436 0.031-0.862 0.082-1.281l-0.005 0.054q0.071-0.595 0.141-0.981l0.049-0.256c0-0.003 0-0.007 0-0.011s-0-0.008-0-0.012l0 0.001c-0-0.072-0.052-0.132-0.12-0.145l-0.001-0-0.932-0.145h-0.020c-0.069 0.001-0.126 0.048-0.142 0.112l-0 0.001c-0.016 0.059-0.025 0.104-0.053 0.246-0.053 0.274-0.103 0.542-0.157 0.932-0.053 0.37-0.091 0.812-0.104 1.26l-0 0.018c-0.010 0.134-0.015 0.29-0.015 0.447s0.006 0.313 0.017 0.468l-0.001-0.021q0.033 1.185 0.407 1.895t1.268 1.020 2.489 0.305h0.134q1.597 0.007 2.489-0.305t1.268-1.020q0.374-0.709 0.407-1.895c0.010-0.134 0.015-0.29 0.015-0.447s-0.006-0.313-0.016-0.468l0.001 0.021c-0.014-0.466-0.052-0.908-0.113-1.342l0.007 0.064c-0.055-0.385-0.104-0.652-0.157-0.932-0.030-0.142-0.037-0.186-0.053-0.246-0.016-0.065-0.073-0.113-0.143-0.113h-0.024l-0.932 0.145c-0.070 0.012-0.122 0.072-0.122 0.144 0 0 0 0.001 0 0.001v-0c-0 0.003-0 0.007-0 0.011s0 0.008 0 0.012l-0-0.001 0.049 0.256q0.071 0.387 0.143 0.981c0.045 0.365 0.073 0.791 0.076 1.223l0 0.004q0.012 1.176-0.237 1.741c-0.167 0.373-0.498 0.647-0.899 0.733l-0.008 0.002c-0.44 0.098-0.946 0.153-1.465 0.153-0.071 0-0.142-0.001-0.213-0.003l0.010 0zM22.050 24.234c0-0.625 0.178-1.063 0.901-1.063s0.901 0.438 0.901 1.063-0.178 1.063-0.9 1.063-0.902-0.438-0.902-1.063zM23.392 24.234c0-0.434-0.056-0.681-0.441-0.681s-0.443 0.248-0.443 0.681 0.057 0.681 0.443 0.681 0.441-0.249 0.441-0.681zM9.57 25.217c0.010 0.018 0.030 0.030 0.051 0.030 0 0 0.001 0 0.001 0h0.169c0.033 0 0.059-0.027 0.059-0.059v0-1.907c0-0.033-0.027-0.059-0.059-0.059v0h-0.336c-0.033 0-0.059 0.027-0.059 0.059v0 1.514c-0.13 0.075-0.286 0.119-0.452 0.119-0.006 0-0.013-0-0.019-0h0.001c-0.215 0-0.32-0.093-0.32-0.3v-1.332c0-0.033-0.027-0.059-0.059-0.059v0h-0.338c-0.033 0-0.059 0.027-0.059 0.059v0 1.372c0 0.389 0.183 0.644 0.697 0.644 0.246-0.003 0.474-0.081 0.661-0.213l-0.004 0.002 0.059 0.134zM13.355 23.816c0-0.385-0.191-0.645-0.671-0.645-0.243 0.001-0.467 0.076-0.653 0.204l0.004-0.003c-0.085-0.125-0.248-0.201-0.519-0.201-0.231 0.005-0.443 0.083-0.614 0.213l0.003-0.002-0.059-0.134c-0.010-0.018-0.030-0.030-0.051-0.030-0 0-0.001 0-0.001 0h-0.17c-0.033 0-0.059 0.027-0.059 0.059v0 1.908c0 0.033 0.027 0.059 0.059 0.059v0h0.336c0.033 0 0.059-0.027 0.059-0.059v0-1.511c0.121-0.074 0.267-0.119 0.424-0.119 0 0 0.001 0 0.001 0h-0c0.183 0 0.288 0.067 0.288 0.26v1.373c0 0.033 0.027 0.059 0.059 0.059v0h0.336c0.033 0 0.059-0.027 0.059-0.059v0-1.514c0.118-0.074 0.262-0.119 0.417-0.119 0.003 0 0.007 0 0.010 0h-0.001c0.178 0 0.288 0.067 0.288 0.26v1.372c0 0.033 0.027 0.059 0.059 0.059v0h0.336c0.033 0 0.059-0.027 0.059-0.059v0zM14.393 25.086c0.176 0.132 0.398 0.211 0.639 0.211 0.007 0 0.014-0 0.021-0l-0.001 0c0.593 0 0.811-0.397 0.811-1.063s-0.22-1.064-0.811-1.064c-0.202 0.001-0.39 0.060-0.548 0.161l0.004-0.002v-0.612c0-0.001 0-0.001 0-0.002 0-0.033-0.027-0.059-0.059-0.059 0 0-0 0-0 0h-0.338c-0.033 0-0.059 0.027-0.059 0.059v0 2.473c0 0.033 0.027 0.059 0.059 0.059v0h0.169c0 0 0.001 0 0.001 0 0.022 0 0.041-0.012 0.051-0.029l0-0zM14.944 24.912c-0 0-0 0-0 0-0.161 0-0.312-0.044-0.441-0.121l0.004 0.002v-1.119c0.125-0.075 0.276-0.119 0.437-0.119 0 0 0 0 0 0h-0c0.397 0 0.459 0.304 0.459 0.678s-0.059 0.677-0.458 0.677zM17.541 23.57c-0.045-0.006-0.097-0.010-0.15-0.010-0.003 0-0.005 0-0.008 0h0c-0.013-0.001-0.027-0.001-0.042-0.001-0.175 0-0.34 0.045-0.483 0.125l0.005-0.003v1.506c0 0.033-0.027 0.059-0.059 0.059v0h-0.336c-0.033 0-0.059-0.027-0.059-0.059v0-1.907c0-0.033 0.027-0.059 0.059-0.059v0h0.169c0 0 0.001 0 0.001 0 0.022 0 0.041 0.012 0.051 0.029l0 0 0.059 0.134c0.171-0.132 0.389-0.211 0.624-0.211 0.006 0 0.012 0 0.018 0h-0.001c0 0 0 0 0 0 0.056 0 0.111 0.005 0.165 0.014l-0.006-0.001c0.030 0 0.055 0.050 0.055 0.083v0.243c0 0.033-0.027 0.059-0.059 0.059v0h-0.005zM18.705 24.311c-0.201 0.024-0.321 0.101-0.321 0.312 0 0.154 0.067 0.3 0.312 0.3 0.002 0 0.004 0 0.007 0 0.16 0 0.308-0.050 0.43-0.136l-0.002 0.002v-0.525zM19.241 25.086c-0.166 0.131-0.378 0.211-0.609 0.211-0.001 0-0.003 0-0.004 0h0c-0.524 0-0.697-0.324-0.697-0.649 0-0.438 0.284-0.625 0.743-0.661l0.455-0.036v-0.101c0-0.207-0.097-0.288-0.398-0.288-0.198 0-0.389 0.034-0.566 0.096l0.012-0.004c-0.003 0-0.006 0.001-0.009 0.001s-0.007-0-0.010-0.001l0 0c-0.033 0-0.059-0.027-0.059-0.059v0-0.268c0-0-0-0.001-0-0.002 0-0.025 0.016-0.047 0.038-0.055l0-0c0.185-0.064 0.397-0.101 0.619-0.101 0.003 0 0.005 0 0.008 0h-0c0.665 0 0.819 0.292 0.819 0.722v1.294c0 0.033-0.027 0.059-0.059 0.059v0h-0.168c-0 0-0.001 0-0.001 0-0.022 0-0.041-0.012-0.051-0.029l-0-0zM21.553 24.83c0.003-0 0.006-0.001 0.009-0.001s0.006 0 0.009 0.001l-0-0c0.033 0 0.059 0.027 0.059 0.059v0 0.269c0 0 0 0.001 0 0.001 0 0.025-0.015 0.046-0.036 0.055l-0 0c-0.147 0.054-0.316 0.086-0.492 0.086-0.011 0-0.021-0-0.031-0l0.002 0c-0.718 0-0.94-0.43-0.94-1.063s0.22-1.063 0.94-1.063c0.011-0 0.025-0 0.038-0 0.172 0 0.337 0.030 0.491 0.085l-0.010-0.003c0.022 0.009 0.038 0.030 0.038 0.055 0 0 0 0.001 0 0.001v-0 0.269c0 0.033-0.027 0.059-0.059 0.059v0c-0.003 0-0.006 0-0.010 0s-0.007-0-0.010-0l0 0c-0.125-0.041-0.269-0.064-0.419-0.064-0.012 0-0.024 0-0.036 0l0.002-0c-0.393 0-0.508 0.268-0.508 0.661s0.114 0.661 0.508 0.661c0.008 0 0.017 0 0.026 0 0.152 0 0.299-0.025 0.436-0.070l-0.010 0.003z"></path>
</symbol>
<symbol id="icon--yarn" viewBox="0 0 32 32">
<path d="M24.81 20.177c-1.085 0.012-2.035 0.573-2.837 1.073-1.5 0.927-2.25 0.867-2.25 0.867l-0.025-0.043c-0.102-0.168 0.48-1.67-0.172-3.46-0.705-1.957-1.825-2.43-1.735-2.58 0.383-0.648 1.34-1.675 1.723-3.59 0.227-1.16 0.168-3.070-0.348-4.070-0.095-0.185-0.945 0.31-0.945 0.31s-0.795-1.772-1.018-1.915c-0.718-0.46-1.5 1.903-1.5 1.903-0.102-0.011-0.221-0.017-0.341-0.017-1.023 0-1.944 0.439-2.584 1.139l-0.002 0.003c-0.264 0.254-0.586 0.45-0.945 0.563l-0.017 0.005c-0.102 0.035-0.227 0.030-0.537 0.867-0.475 1.268 0.81 2.703 0.81 2.703s-1.533 1.082-2.1 2.43c-0.293 0.695-0.464 1.503-0.464 2.352 0 0.2 0.009 0.398 0.028 0.593l-0.002-0.025s-1.090 0.945-1.16 1.92c-0.009 0.091-0.014 0.197-0.014 0.305 0 0.61 0.17 1.181 0.465 1.667l-0.008-0.014c0.079 0.166 0.246 0.279 0.439 0.279 0.080 0 0.155-0.019 0.221-0.053l-0.003 0.001s-0.725 0.845-0.047 1.203c0.617 0.323 1.658 0.5 2.207-0.047 0.4-0.4 0.48-1.293 0.627-1.657 0.035-0.085 0.155 0.142 0.27 0.25 0.101 0.088 0.212 0.171 0.329 0.244l0.011 0.006s-0.975 0.42-0.575 1.378c0.133 0.317 0.605 0.52 1.377 0.515 0.287 0 3.44-0.18 4.28-0.383 0.263-0.043 0.489-0.175 0.651-0.364l0.001-0.001c1.474-0.445 2.759-1.040 3.937-1.788l-0.064 0.038c1.185-0.773 1.67-0.983 2.628-1.21 0.79-0.188 0.738-1.413-0.31-1.395z"></path>
<path d="M16 0.5c-8.56 0-15.5 6.94-15.5 15.5s6.94 15.5 15.5 15.5c8.56 0 15.5-6.94 15.5-15.5v0c0-8.56-6.94-15.5-15.5-15.5v0zM25.325 22.457c-0.837 0.203-1.227 0.36-2.352 1.090-1.119 0.714-2.407 1.323-3.771 1.762l-0.119 0.033c-0.253 0.209-0.56 0.363-0.895 0.44l-0.015 0.003c-0.953 0.233-4.22 0.407-4.477 0.407h-0.060c-1 0-1.568-0.31-1.873-0.635-0.85 0.425-1.95 0.25-2.75-0.172-0.383-0.191-0.662-0.544-0.748-0.966l-0.002-0.009c-0.014-0.077-0.022-0.166-0.022-0.258s0.008-0.18 0.024-0.267l-0.001 0.009c-0.071-0.074-0.137-0.156-0.194-0.244l-0.004-0.006c-0.368-0.602-0.585-1.33-0.585-2.109 0-0.143 0.007-0.284 0.022-0.423l-0.001 0.017c0.072-0.933 0.718-1.765 1.138-2.207-0.003-0.074-0.004-0.162-0.004-0.249 0-0.963 0.191-1.882 0.537-2.721l-0.017 0.047c0.42-0.888 0.995-1.637 1.696-2.243l0.009-0.007c-0.412-0.695-0.832-1.765-0.425-2.855 0.293-0.777 0.533-1.21 1.060-1.395 0.242-0.071 0.452-0.186 0.63-0.337l-0.002 0.002c0.747-0.809 1.788-1.338 2.952-1.414l0.013-0.001c0.047-0.12 0.102-0.25 0.162-0.365 0.4-0.85 0.825-1.327 1.323-1.5 0.127-0.049 0.274-0.077 0.427-0.077 0.251 0 0.483 0.076 0.677 0.205l-0.004-0.003c0.163 0.107 0.37 0.25 0.975 1.5 0.118-0.043 0.254-0.069 0.395-0.069 0.113 0 0.222 0.016 0.325 0.046l-0.008-0.002c0.262 0.073 0.475 0.249 0.595 0.48l0.003 0.005c0.617 1.185 0.7 3.297 0.43 4.655-0.258 1.269-0.768 2.388-1.476 3.351l0.016-0.023c0.627 0.652 1.12 1.439 1.429 2.313l0.014 0.045c0.234 0.636 0.37 1.37 0.37 2.136 0 0.164-0.006 0.327-0.018 0.488l0.001-0.021c0.307-0.148 0.563-0.293 0.808-0.452l-0.028 0.017c0.765-0.473 1.92-1.185 3.297-1.203 0.033-0.002 0.072-0.004 0.111-0.004 0.834 0 1.524 0.617 1.638 1.42l0.001 0.009c0.009 0.063 0.014 0.136 0.014 0.209 0 0.752-0.523 1.382-1.226 1.546l-0.011 0.002z"></path>
</symbol>
<symbol id="icon--webpack" viewBox="0 0 32 32">
<path d="M29.323 24.525l-12.762 7.225v-5.628l7.94-4.372 4.823 2.775zM30.198 23.735v-15.098l-4.67 2.7v9.703l4.668 2.692zM2.678 24.525l12.75 7.22v-5.622l-7.942-4.372zM1.802 23.735v-15.098l4.67 2.7v9.703zM2.35 7.66l13.090-7.41v5.44l-8.455 4.65zM29.645 7.66l-13.085-7.41v5.44l8.455 4.647 4.635-2.678zM15.44 24.843l-7.848-4.317v-8.545l7.848 4.52zM16.56 24.843l7.848-4.313v-8.55l-7.848 4.52zM8.125 11l7.875-4.335 7.875 4.335-7.875 4.54-7.875-4.54z"></path>
</symbol>
<symbol id="icon--vue" viewBox="0 0 32 32">
<path d="M0 2.233l12.463 0.039 3.575 6.104 3.575-6.104 12.387-0.039-15.959 27.534zM31.747 2.393l-6.093 0.005-9.618 16.513-9.613-16.513-6.188-0.005 15.803 26.973z"></path>
</symbol>
<symbol id="icon--typescript" viewBox="0 0 32 32">
<path d="M0.5 15.977v15.625h31.25v-31.25h-31.25zM25.683 14.727c0.776 0.184 1.442 0.58 1.953 1.123l0.002 0.002c0.281 0.293 0.53 0.621 0.737 0.976l0.013 0.024c0 0.040-1.35 0.953-2.172 1.462-0.030 0.020-0.15-0.11-0.282-0.308-0.302-0.513-0.842-0.858-1.464-0.882l-0.003-0c-0.948-0.065-1.558 0.433-1.552 1.25-0.001 0.013-0.001 0.029-0.001 0.044 0 0.198 0.050 0.384 0.139 0.547l-0.003-0.006c0.207 0.433 0.595 0.69 1.81 1.215 2.238 0.962 3.195 1.598 3.79 2.5 0.665 1 0.813 2.615 0.363 3.81-0.5 1.3-1.725 2.183-3.457 2.475-0.327 0.040-0.706 0.062-1.090 0.062-0.455 0-0.902-0.032-1.34-0.093l0.050 0.006c-1.252-0.208-2.341-0.795-3.172-1.637l-0.001-0.001c-0.288-0.317-0.848-1.145-0.813-1.205 0.083-0.062 0.177-0.123 0.275-0.176l0.012-0.006 1.15-0.66 0.898-0.52 0.188 0.277c0.32 0.454 0.714 0.832 1.168 1.125l0.017 0.010c1 0.525 2.365 0.453 3.040-0.155 0.251-0.246 0.406-0.589 0.406-0.968 0-0.284-0.087-0.548-0.237-0.766l0.003 0.005c-0.25-0.348-0.75-0.64-2.148-1.25-1.613-0.695-2.308-1.125-2.942-1.81-0.383-0.435-0.678-0.958-0.85-1.533l-0.008-0.029c-0.070-0.352-0.11-0.756-0.11-1.17 0-0.293 0.020-0.581 0.059-0.863l-0.004 0.033c0.332-1.558 1.5-2.645 3.205-2.967 0.292-0.038 0.629-0.060 0.972-0.060 0.495 0 0.979 0.045 1.449 0.132l-0.049-0.008zM18.348 16.038v1.28h-4.058v11.557h-2.877v-11.56h-4.067v-1.25c-0.003-0.093-0.004-0.202-0.004-0.312 0-0.344 0.014-0.685 0.042-1.022l-0.003 0.044c0.015-0.020 2.5-0.030 5.5-0.025h5.453z"></path>
</symbol>
<symbol id="icon--twitter" viewBox="0 0 32 32">
<path d="M10.063 31.909c12.076 0 18.68-12.239 18.68-22.851 0-0.348 0-0.694-0.019-1.039 1.285-1.137 2.395-2.545 3.276-4.158-1.198 0.651-2.468 1.076-3.77 1.266 1.37-1.005 2.396-2.584 2.885-4.444-1.289 0.936-2.699 1.595-4.17 1.95-2.034-2.647-5.267-3.295-7.887-1.58-2.618 1.715-3.97 5.365-3.3 8.904-5.278-0.323-10.197-3.374-13.53-8.39-1.746 3.668-0.857 8.363 2.027 10.723-1.037-0.043-2.052-0.389-2.958-1.008v0.102c0 3.818 2.196 7.109 5.255 7.873-0.513 0.178-1.105 0.281-1.72 0.281-0.442 0-0.871-0.053-1.282-0.153l0.037 0.008c0.859 3.273 3.324 5.518 6.134 5.582-2.326 2.229-5.198 3.438-8.154 3.43-0.523 0-1.047-0.038-1.567-0.111 3.002 2.358 6.495 3.61 10.063 3.605z"></path>
</symbol>
<symbol id="icon--tailwind" viewBox="0 0 32 32">
<path d="M16.001 6.401c-4.267 0-6.933 2.132-8 6.399 1.599-2.133 3.467-2.933 5.599-2.399 1.218 0.303 2.088 1.187 3.052 2.165 1.569 1.592 3.384 3.434 7.349 3.434 4.267 0 6.933-2.133 8-6.401-1.6 2.134-3.467 2.934-5.6 2.401-1.218-0.304-2.087-1.187-3.052-2.165-1.567-1.592-3.383-3.434-7.349-3.434zM8.001 16c-4.266 0-6.933 2.133-8 6.401 1.599-2.134 3.466-2.934 5.599-2.401 1.218 0.304 2.088 1.186 3.052 2.165 1.569 1.592 3.384 3.434 7.349 3.434 4.267 0 6.933-2.133 8-6.399-1.6 2.133-3.467 2.933-5.6 2.399-1.218-0.303-2.087-1.186-3.052-2.165-1.568-1.592-3.383-3.434-7.348-3.434z"></path>
</symbol>
<symbol id="icon--sass" viewBox="0 0 32 32">
<path d="M0.305 14.039c0 0.176 0.052 0.292 0.081 0.405 0.189 0.733 0.595 1.363 1.077 1.936 0.686 0.818 1.527 1.477 2.389 2.096 0.747 0.537 1.509 1.062 2.259 1.595 0.129 0.091 0.25 0.197 0.39 0.309-0.12 0.065-0.22 0.122-0.324 0.175-0.99 0.502-1.942 1.065-2.82 1.747-0.529 0.411-1.040 0.848-1.402 1.419-0.581 0.918-0.787 1.896-0.354 2.94 0.127 0.305 0.32 0.569 0.592 0.763 0.088 0.063 0.187 0.125 0.29 0.15 0.264 0.062 0.534 0.103 0.802 0.152l0.758-0c0.838-0.075 1.602-0.362 2.292-0.838 1.078-0.744 1.804-1.741 2.116-3.022 0.227-0.93 0.236-1.862-0.031-2.788-0.032-0.107-0.062-0.191-0.096-0.273l0.007 0.020c-0.033-0.083-0.071-0.164-0.116-0.268l1.719-0.988 0.026 0.022c-0.031 0.102-0.065 0.204-0.093 0.308-0.204 0.746-0.34 1.505-0.291 2.279 0.052 0.825 0.282 1.597 0.765 2.287 0.39 0.558 1.321 0.578 1.736 0.019 0.147-0.199 0.29-0.407 0.397-0.628 0.28-0.579 0.54-1.168 0.807-1.753l0.047-0.107c-0.019 0.277-0.042 0.52-0.052 0.764-0.016 0.38 0.006 0.758 0.136 1.12 0.111 0.309 0.3 0.541 0.655 0.581 0.242 0.028 0.436-0.083 0.614-0.224 0.274-0.218 0.499-0.484 0.666-0.786l0.007-0.013c0.475-0.873 0.963-1.74 1.394-2.635 0.466-0.968 0.873-1.964 1.306-2.948l0.072-0.174c0.102 0.402 0.174 0.795 0.305 1.168 0.152 0.432 0.341 0.854 0.547 1.264 0.097 0.194 0.086 0.32-0.049 0.482-0.564 0.68-1.118 1.368-1.673 2.056-0.123 0.152-0.245 0.306-0.347 0.472-0.059 0.098-0.101 0.213-0.119 0.336l-0.001 0.005c-0.003 0.020-0.005 0.043-0.005 0.067 0 0.21 0.15 0.386 0.348 0.426l0.003 0c0.153 0.034 0.328 0.054 0.509 0.054 0.059 0 0.118-0.002 0.176-0.006l-0.008 0c0.774-0.057 1.477-0.329 2.099-0.789 0.805-0.596 1.064-1.41 0.869-2.375-0.053-0.262-0.146-0.516-0.237-0.768-0.041-0.114-0.044-0.194 0.031-0.299 0.644-0.919 1.194-1.895 1.705-2.892 0.020-0.039 0.041-0.078 0.076-0.12 0.166 0.863 0.415 1.694 0.862 2.448-0.228 0.22-0.454 0.419-0.658 0.639-0.45 0.483-0.84 1.009-1.043 1.649-0.087 0.276-0.155 0.556-0.116 0.851 0.061 0.458 0.436 0.755 0.886 0.651 0.963-0.223 1.795-0.677 2.403-1.481 0.409-0.541 0.446-1.145 0.275-1.778-0.047-0.172-0.103-0.341-0.163-0.538 0.238-0.074 0.47-0.162 0.709-0.217 1.245-0.284 2.476-0.235 3.675 0.215 0.7 0.262 1.266 0.702 1.602 1.393 0.41 0.845 0.183 1.646-0.613 2.18-0.074 0.050-0.159 0.089-0.221 0.151-0.033 0.038-0.053 0.088-0.053 0.142 0 0.009 0.001 0.018 0.002 0.027l-0-0.001c0.005 0.031 0.087 0.069 0.133 0.069 0.262-0.002 0.474-0.139 0.678-0.28 0.511-0.353 0.883-0.829 0.963-1.454l0.016-0.047-0.019-0.407c-0.008-0.023 0.006-0.047 0.004-0.064-0.108-0.911-0.595-1.618-1.303-2.172-0.82-0.641-1.788-0.905-2.812-0.947-0.081-0.004-0.177-0.006-0.273-0.006-0.778 0-1.523 0.14-2.212 0.396l0.044-0.014c-0.224 0.081-0.447 0.177-0.672 0.268-0.030-0.055-0.063-0.107-0.090-0.162-0.232-0.474-0.512-0.927-0.574-1.471-0.044-0.386-0.098-0.771-0.006-1.153 0.088-0.367 0.203-0.728 0.311-1.091 0.056-0.187 0.017-0.291-0.162-0.375-0.057-0.029-0.123-0.051-0.192-0.064l-0.004-0.001c-0.438-0.063-0.869-0.027-1.293 0.096-0.15 0.044-0.259 0.128-0.292 0.294-0.019 0.095-0.058 0.187-0.085 0.28-0.111 0.391-0.189 0.789-0.368 1.161-0.448 0.934-0.96 1.832-1.485 2.724-0.057 0.096-0.116 0.191-0.188 0.308-0.184-0.385-0.38-0.73-0.44-1.136-0.067-0.458-0.12-0.915-0.006-1.37 0.085-0.339 0.195-0.672 0.297-1.006 0.048-0.159 0.026-0.242-0.118-0.326-0.073-0.042-0.155-0.080-0.237-0.092-0.132-0.021-0.284-0.033-0.438-0.033-0.322 0-0.631 0.052-0.921 0.149l0.021-0.006c-0.136 0.044-0.207 0.132-0.248 0.272-0.122 0.413-0.226 0.836-0.397 1.229-0.694 1.59-1.407 3.172-2.12 4.753-0.149 0.33-0.323 0.649-0.491 0.971-0.043 0.081-0.104 0.153-0.158 0.23-0.043-0.050-0.059-0.085-0.059-0.119 0.001-0.203-0.023-0.413 0.016-0.609 0.172-0.881 0.309-1.479 0.458-2.072l-0.063 0.297c0.117-0.486 0.254-0.968 0.384-1.452 0.044-0.162 0.044-0.313-0.072-0.449-0.195-0.228-0.603-0.278-0.845-0.102l-0.107 0.061 0.021-0.172c0.051-0.37 0.061-0.738-0.040-1.102-0.127-0.454-0.45-0.715-0.921-0.701-0.22 0.007-0.45 0.044-0.653 0.124-0.855 0.335-1.512 0.928-2.072 1.642-0.052 0.066-0.115 0.12-0.186 0.162l-0.003 0.002c-0.723 0.401-1.449 0.797-2.174 1.195l-0.807 0.442c-0.216-0.206-0.413-0.421-0.636-0.602-0.682-0.556-1.375-1.098-2.061-1.648-0.609-0.487-1.198-0.995-1.649-1.64-0.336-0.48-0.552-1.005-0.572-1.599-0.026-0.756 0.188-1.447 0.573-2.091 0.493-0.823 1.164-1.483 1.903-2.082 0.781-0.633 1.626-1.169 2.502-1.66 1.225-0.686 2.485-1.293 3.837-1.694 1.386-0.411 2.791-0.646 4.241-0.482 0.57 0.064 1.123 0.195 1.632 0.474 0.389 0.213 0.709 0.492 0.857 0.929 0.146 0.43 0.142 0.865 0.041 1.301-0.206 0.883-0.69 1.612-1.299 2.263-0.998 1.067-2.216 1.793-3.588 2.273-0.714 0.259-1.544 0.444-2.404 0.518l-0.037 0.003c-0.682 0.057-1.35-0.003-1.996-0.241-0.428-0.157-0.8-0.398-1.1-0.747-0.053-0.063-0.122-0.13-0.222-0.072-0.098 0.057-0.115 0.15-0.082 0.245 0.055 0.156 0.105 0.319 0.191 0.46 0.214 0.351 0.527 0.606 0.871 0.825 0.661 0.42 1.399 0.562 2.165 0.594 1.162 0.050 2.296-0.123 3.413-0.435 1.596-0.445 2.983-1.231 4.096-2.471 0.927-1.033 1.588-2.198 1.73-3.605 0.069-0.687-0.005-1.359-0.326-1.986-0.349-0.679-0.903-1.183-1.566-1.531-0.965-0.506-2.008-0.801-3.083-0.801h-1.078c-1.303 0-2.562 0.373-3.786 0.819-0.927 0.337-1.835 0.735-2.717 1.176-1.921 0.96-3.709 2.117-5.179 3.708-0.732 0.793-1.352 1.668-1.708 2.697-0.087 0.235-0.183 0.548-0.263 0.867l-0.015 0.070zM7.286 22.59c-0.083 1.115-0.588 2.018-1.414 2.75-0.465 0.412-0.997 0.704-1.618 0.808-0.225 0.037-0.455 0.046-0.673-0.047-0.311-0.133-0.381-0.409-0.387-0.703-0.009-0.469 0.155-0.893 0.38-1.297 0.294-0.526 0.725-0.927 1.185-1.302 0.725-0.59 1.511-1.090 2.317-1.561l0.061-0.025c0.125 0.46 0.184 0.914 0.149 1.377zM13.576 17.745c-0.059 0.356-0.132 0.712-0.236 1.057-0.36 1.194-0.821 2.352-1.321 3.493-0.092 0.211-0.226 0.404-0.343 0.604-0.021 0.032-0.044 0.059-0.070 0.083l-0 0c-0.145 0.143-0.281 0.135-0.354-0.052-0.085-0.217-0.137-0.449-0.182-0.679-0.030-0.154-0.023-0.316-0.033-0.474 0.010-1.123 0.352-2.145 0.934-3.095 0.24-0.392 0.501-0.765 0.899-1.014 0.115-0.073 0.247-0.133 0.388-0.174l0.011-0.003c0.213-0.060 0.343 0.038 0.308 0.252zM17.867 23.212l1.542-1.801c0.064 0.669-1.073 2.004-1.542 1.801zM22.793 22c-0.109 0.063-0.228 0.108-0.34 0.165-0.102 0.053-0.136-0-0.139-0.088-0-0.004-0-0.010-0-0.015 0-0.059 0.009-0.116 0.024-0.17l-0.001 0.004c0.208-0.735 0.591-1.361 1.162-1.872l0.040-0.020c0.271 0.759-0.042 1.592-0.747 1.995z"></path>
</symbol>
<symbol id="icon--nuget" viewBox="0 0 32 32">
<path d="M2.328 0.627c-0.839 0.108-1.58 0.605-1.99 1.336-0.225 0.401-0.328 0.804-0.329 1.279 0 0.447 0.074 0.779 0.266 1.172 0.355 0.734 1.029 1.252 1.867 1.433 0.215 0.046 0.738 0.050 0.962 0.008 0.961-0.181 1.731-0.844 2.042-1.755 0.106-0.305 0.127-0.456 0.127-0.849 0-0.383-0.011-0.471-0.104-0.773-0.266-0.873-0.972-1.552-1.851-1.781-0.294-0.076-0.706-0.105-0.989-0.068zM14.125 6.383c-3.479 0.297-6.388 2.774-7.224 6.149-0.106 0.422-0.145 0.654-0.216 1.258-0.025 0.216-0.038 9.572-0.013 9.992 0.037 0.653 0.131 1.211 0.304 1.813 0.777 2.692 2.906 4.817 5.592 5.578 0.457 0.128 0.941 0.221 1.455 0.276 0.252 0.026 0.518 0.028 5.18 0.028 5.209 0 5.017 0.003 5.563-0.072 1.425-0.203 2.695-0.749 3.761-1.552l-0.021 0.015c0.437-0.326 0.98-0.833 1.31-1.219 0.315-0.372 0.675-0.881 0.911-1.297 0.479-0.839 0.831-1.864 0.967-2.813 0.083-0.568 0.077-0.206 0.083-5.445 0.005-3.414 0.002-4.928-0.011-5.11-0.117-1.756-0.752-3.344-1.887-4.718-0.191-0.232-0.77-0.811-1.003-1.003-1.164-0.964-2.467-1.563-3.922-1.8-0.62-0.101-0.192-0.093-5.64-0.098-3.985-0.001-4.992 0.002-5.188 0.018zM13.406 10.107c1.2 0.214 2.183 1.053 2.57 2.193 0.244 0.721 0.237 1.482-0.018 2.192-0.17 0.473-0.5 0.973-0.857 1.297-0.639 0.583-1.4 0.883-2.242 0.883-0.908 0-1.708-0.33-2.346-0.967-0.537-0.538-0.86-1.195-0.951-1.947-0.025-0.203-0.021-0.625 0.008-0.836 0.206-1.502 1.393-2.658 2.914-2.844 0.198-0.023 0.717-0.008 0.922 0.028zM24.047 18.258c1.174 0.151 2.2 0.645 3.045 1.469 0.633 0.617 1.064 1.307 1.337 2.141 0.177 0.533 0.242 0.934 0.253 1.531 0.011 0.608-0.040 1.031-0.192 1.567-0.329 1.17-1.099 2.234-2.115 2.922-1.313 0.891-2.912 1.143-4.459 0.703-0.586-0.165-1.285-0.524-1.776-0.91-1.291-1.020-2.033-2.543-2.031-4.179 0.002-1.82 0.943-3.513 2.5-4.486 0.7-0.439 1.492-0.702 2.359-0.783 0.214-0.021 0.849-0.006 1.078 0.023z"></path>
</symbol>
<symbol id="icon--npm" viewBox="0 0 32 32">
<path d="M0.5 9.625h31v10.928h-15.5v1.823h-6.89v-1.823h-8.61zM2.223 18.733h3.445v-5.465h1.723v5.465h1.723v-7.285h-6.89zM10.832 11.447v9.105h3.445v-1.82h3.445v-7.285zM14.277 13.27h1.723v3.64h-1.723zM19.445 11.447v7.285h3.445v-5.465h1.723v5.465h1.723v-5.465h1.723v5.465h1.723v-7.285z"></path>
</symbol>
<symbol id="icon--sql" viewBox="0 0 32 32">
<path d="M13.813 1.038c-0.082 0.028-0.525 0.17-0.99 0.323-2.5 0.818-4.27 1.765-4.71 2.515-0.168 0.287-0.2 0.52-0.1 0.752 0.11 0.263 0.313 0.46 0.867 0.853 0.26 0.183 0.703 0.565 0.99 0.853 1.375 1.373 2.043 3.055 1.967 4.957-0.085 2.14-1.088 4.28-3.008 6.422-0.67 0.747-1.357 1.37-2.678 2.428-1.1 0.88-1.697 1.45-2.105 2.003-1.248 1.7-0.915 3.215 0.99 4.48 1.68 1.117 4.64 2.047 8.127 2.553 1.17 0.17 2.492 0.277 2.81 0.23l0.222-0.032 0.35-0.63c1.77-3.188 2.665-6.192 2.773-9.303 0.047-1.387-0.128-3.030-0.425-3.99-0.055-0.172-0.095-0.32-0.087-0.325 0.005-0.005 0.5-0.152 1.1-0.332 3.152-0.94 6.203-1.68 8.723-2.117 0.49-0.085 0.91-0.172 0.933-0.195 0.135-0.133-0.258-0.745-0.895-1.402-2.358-2.432-6.523-4.285-11.41-5.072-0.942-0.152-1.058-0.207-1.408-0.67-0.555-0.735-1.078-1.992-1.79-4.293-0.023-0.070-0.045-0.070-0.248-0.005zM14.137 1.903c0.275 0.748 0.443 1.335 0.443 1.543v0.163l-0.232-0.027c-1.26-0.145-3.27-0.458-3.697-0.573-0.11-0.030-0.172-0.072-0.152-0.105 0.033-0.053 0.46-0.257 1.73-0.835 1.185-0.538 1.635-0.738 1.67-0.74 0.015 0 0.123 0.258 0.24 0.575zM11.473 3.48c1.537 0.323 2.658 0.525 2.905 0.525 0.24 0 0.213 0.020-0.918 0.71-0.873 0.53-0.973 0.58-1.193 0.58h-0.24l-0.645-0.655c-0.783-0.792-1.313-1.373-1.313-1.438 0-0.027 0.015-0.035 0.037-0.022 0.020 0.010 0.637 0.147 1.365 0.3zM10.338 4.207c0.377 0.44 0.67 0.81 0.655 0.827-0.033 0.032-1.11-0.235-1.77-0.438-0.575-0.178-0.645-0.237-0.492-0.433 0.1-0.13 0.842-0.75 0.898-0.752 0.015-0.002 0.332 0.353 0.71 0.795zM15.242 5.12c0.15 0.357 0.265 0.647 0.26 0.652-0.008 0.005-2.027-0.308-2.205-0.343-0.037-0.008 0.305-0.24 0.765-0.52s0.852-0.492 0.873-0.47c0.020 0.018 0.158 0.322 0.307 0.68zM10.838 5.798c0.040 0.040 0.522 1.59 0.5 1.61-0.008 0.008-0.238-0.258-0.51-0.595-0.275-0.338-0.688-0.81-0.925-1.058l-0.428-0.447 0.668 0.23c0.365 0.128 0.68 0.245 0.695 0.26zM12.768 6.005c0.838 0.12 1.533 0.228 1.545 0.24 0.010 0.013-0.495 0.405-1.125 0.875-0.63 0.468-1.15 0.845-1.158 0.838s-0.070-0.202-0.14-0.435c-0.070-0.232-0.25-0.715-0.398-1.077s-0.262-0.657-0.258-0.657c0.005 0 0.695 0.1 1.533 0.218zM14.873 6.675c0.185 0.433 0.258 0.848 0.287 1.675 0.015 0.445 0.018 0.807 0.002 0.807s-0.28-0.092-0.588-0.203c-0.615-0.223-1.82-0.62-1.963-0.648-0.063-0.012 0.227-0.29 0.99-0.947 0.595-0.513 1.1-0.93 1.123-0.93 0.025 0.003 0.090 0.112 0.148 0.245zM17.032 6.78c0.927 0.19 1.738 0.36 1.802 0.375 0.093 0.022-0.13 0.162-1.11 0.7-0.675 0.37-1.44 0.79-1.7 0.938-0.262 0.148-0.477 0.26-0.482 0.255s0.023-0.143 0.060-0.307c0.14-0.6 0.053-1.35-0.227-1.947-0.082-0.173-0.15-0.325-0.15-0.338 0-0.043 0.168-0.013 1.807 0.325zM19.56 7.912c-0.047 0.21-0.15 0.568-0.233 0.8-0.177 0.51-0.825 1.832-0.913 1.867-0.035 0.015-0.34-0.127-0.672-0.313s-0.815-0.43-1.067-0.543l-0.46-0.205 1.698-1.088c1.407-0.902 1.7-1.072 1.715-0.992 0.010 0.050-0.020 0.263-0.067 0.473zM20.8 7.525c1.76 0.505 3.617 1.188 3.51 1.29-0.023 0.020-0.253 0.098-0.51 0.17-1.328 0.377-3.175 1.015-4.040 1.395-0.267 0.117-0.5 0.205-0.512 0.193s0.093-0.402 0.235-0.863c0.277-0.908 0.6-2.133 0.6-2.29 0-0.070 0.025-0.093 0.087-0.075 0.045 0.013 0.328 0.093 0.63 0.18zM13.232 9.35c0.402 0.133 0.87 0.31 1.043 0.398 0.313 0.158 0.315 0.16 0.225 0.258-0.16 0.178-1.908 1.805-1.957 1.822-0.025 0.010-0.045-0.238-0.045-0.595-0.002-0.62-0.072-1.738-0.125-1.988-0.040-0.182-0.008-0.18 0.86 0.105zM24.407 9.672c-0.385 0.635-1.017 1.54-1.475 2.11-0.468 0.585-1.455 1.685-1.512 1.685-0.023 0-0.165-0.178-0.317-0.398-0.563-0.803-1.215-1.498-1.788-1.902-0.055-0.037-0.087-0.080-0.075-0.092s0.953-0.357 2.082-0.768c2.29-0.83 3.297-1.168 3.36-1.123 0.005 0.008-0.117 0.225-0.275 0.488zM25.84 9.565c1.58 1.103 2.655 1.995 3.045 2.527 0.098 0.135 0.17 0.25 0.16 0.258s-0.517 0.065-1.133 0.125c-2.453 0.242-4.2 0.488-5.125 0.723-0.247 0.063-0.455 0.11-0.457 0.107-0.005-0.005 0.157-0.205 0.365-0.453 1.070-1.283 2.035-2.617 2.395-3.31 0.095-0.182 0.188-0.332 0.207-0.332 0.017-0.002 0.26 0.158 0.543 0.355zM16.983 10.932c0.302 0.162 0.535 0.313 0.523 0.338-0.023 0.045-2.69 1.505-2.713 1.485-0.005-0.005 0.133-0.443 0.307-0.977s0.345-1.115 0.377-1.293l0.060-0.325 0.45 0.24c0.25 0.133 0.692 0.37 0.995 0.533zM14.75 11.018c-0.258 0.893-0.78 2.043-1.018 2.242-0.055 0.045-0.162-0.018-0.515-0.303-0.248-0.2-0.5-0.398-0.568-0.443-0.065-0.045-0.113-0.092-0.102-0.105 0.182-0.182 2.308-1.895 2.317-1.867 0.008 0.018-0.045 0.232-0.115 0.475zM19.58 12.57c0.402 0.268 1.293 1.065 1.245 1.115-0.012 0.012-0.918 0.307-2.008 0.65-1.090 0.345-2.305 0.735-2.7 0.867-0.398 0.133-0.723 0.238-0.725 0.232-0.005-0.005 0.273-0.32 0.615-0.703 0.892-0.995 1.81-2.063 2.135-2.482l0.28-0.363 0.367 0.197c0.198 0.11 0.558 0.33 0.79 0.485zM17.515 11.998c-0.025 0.033-0.265 0.338-0.535 0.68-0.27 0.34-0.915 1.17-1.44 1.842l-0.953 1.225-0.033-0.207c-0.060-0.402-0.275-1.185-0.398-1.453l-0.123-0.268 0.605-0.303c0.625-0.313 1.928-1.020 2.537-1.375 0.385-0.225 0.41-0.235 0.337-0.143zM12.463 13.477c0.248 0.127 0.48 0.293 0.48 0.345 0 0.080-1.613 1.325-1.655 1.277-0.010-0.010 0.135-0.297 0.322-0.64 0.19-0.342 0.38-0.725 0.425-0.855s0.115-0.235 0.15-0.235c0.040 0 0.165 0.050 0.277 0.107zM13.838 15.010c0.113 0.217 0.227 0.83 0.168 0.885-0.025 0.023-0.69 0.337-1.482 0.7s-1.82 0.85-2.293 1.085c-0.47 0.235-0.828 0.4-0.793 0.37 0.035-0.032 0.553-0.465 1.152-0.965 1.16-0.965 2.482-2.117 2.725-2.373l0.145-0.152 0.143 0.137c0.080 0.075 0.185 0.215 0.235 0.313zM12.535 14.998c-0.115 0.102-0.735 0.645-1.375 1.2-0.64 0.552-1.41 1.223-1.71 1.485-0.605 0.527-0.605 0.527 0.168-0.48 0.598-0.78 0.91-1.070 1.768-1.645 0.418-0.28 1.248-0.748 1.328-0.748 0.018-0.002-0.063 0.085-0.178 0.188zM18.543 15.527c0.032 0.162 0.070 0.672 0.087 1.128l0.030 0.83-0.192-0.090c-0.665-0.308-2.533-1.36-2.462-1.387 0.407-0.162 2.425-0.832 2.447-0.81 0.017 0.018 0.058 0.165 0.090 0.33zM16.957 17.012c0.777 0.457 1.42 0.837 1.43 0.845s-0.093 0.093-0.22 0.188c-0.247 0.183-2.885 1.545-2.92 1.51-0.010-0.010 0.025-0.238 0.078-0.5 0.107-0.53 0.205-2.11 0.158-2.613-0.015-0.177-0.010-0.302 0.015-0.288 0.027 0.015 0.683 0.4 1.46 0.858zM14.807 16.677c0.060 0.492-0.012 1.482-0.145 1.997-0.158 0.605-0.248 0.858-0.315 0.88-0.092 0.032-0.668-0.492-1.020-0.93-0.355-0.44-0.82-1.27-0.75-1.337 0.043-0.040 2.098-0.887 2.16-0.89 0.020-0.003 0.053 0.125 0.070 0.28zM12.287 17.915c0.217 0.45 0.715 1.1 1.26 1.65 0.35 0.352 0.438 0.468 0.383 0.503-0.245 0.165-1.338 0.677-2.027 0.948-0.838 0.33-1.925 0.705-1.95 0.675-0.010-0.010 0.24-0.465 0.555-1.010 0.682-1.185 1.545-2.86 1.545-2.997 0-0.175 0.072-0.105 0.235 0.233zM10.998 17.942c-0.012 0.035-0.117 0.295-0.23 0.582-0.485 1.23-1.428 2.9-1.637 2.9-0.162 0-0.402-0.973-0.47-1.907l-0.035-0.47 1.152-0.582c0.635-0.32 1.172-0.582 1.2-0.582 0.023-0.003 0.033 0.025 0.020 0.060zM18.692 19.080c0.005 0.707-0.293 2.42-0.45 2.593-0.065 0.073-0.797-0.198-1.455-0.538-0.59-0.305-1.56-0.907-1.56-0.968 0-0.017 0.148-0.093 0.332-0.17 0.35-0.148 1.978-1.017 2.667-1.425l0.398-0.235 0.035 0.18c0.012 0.098 0.030 0.355 0.032 0.563zM7.835 19.898c0.067 0.56 0.24 1.245 0.455 1.79 0.088 0.223 0.15 0.415 0.14 0.425-0.085 0.078-3.547 1.030-4.005 1.102l-0.218 0.035 0.032-0.168c0.048-0.238 0.383-0.922 0.633-1.293 0.31-0.46 1.077-1.23 1.585-1.587 0.378-0.267 1.287-0.797 1.315-0.767 0.003 0.003 0.032 0.21 0.063 0.462zM15.69 21.078c1.070 0.512 1.475 0.69 1.987 0.867l0.392 0.135-0.247 0.125c-1.402 0.71-3.883 1.723-4.525 1.848-0.143 0.027-0.162 0.020-0.135-0.050 0.11-0.288 1.59-3.345 1.617-3.345 0.018-0.003 0.43 0.19 0.91 0.42zM13.807 20.962c-0.075 0.36-0.482 1.527-0.72 2.058-0.205 0.46-0.68 1.357-0.765 1.442-0.037 0.038-0.883-0.44-1.283-0.725-0.45-0.32-1.435-1.27-1.408-1.358 0.010-0.032 0.61-0.262 1.332-0.512 1.523-0.525 2.375-0.843 2.623-0.97 0.24-0.125 0.26-0.117 0.22 0.065zM18.065 22.575c-0.015 0.105-0.1 0.565-0.192 1.030-0.29 1.457-0.642 2.453-0.867 2.453-0.31 0-2.433-0.515-3.117-0.758-0.465-0.165-0.867-0.352-1-0.47-0.082-0.073-0.040-0.098 0.57-0.348 1.963-0.8 4.225-1.82 4.47-2.015 0.142-0.113 0.165-0.098 0.137 0.108zM8.135 23.020c-0.223 0.398-0.68 1.055-1.55 2.23l-0.742 1-0.223-0.16c-0.313-0.223-0.808-0.762-1.015-1.105-0.223-0.367-0.375-0.82-0.393-1.165l-0.015-0.267 0.367-0.038c0.497-0.050 1.888-0.337 2.88-0.598 0.45-0.117 0.825-0.207 0.835-0.2 0.008 0.010-0.057 0.145-0.145 0.302zM10.293 24.047c0.248 0.177 0.588 0.402 0.762 0.505l0.318 0.185-0.143 0.060c-0.080 0.032-1.232 0.453-2.565 0.935-2.275 0.823-2.425 0.87-2.487 0.785-0.037-0.050-0.063-0.102-0.058-0.12s0.62-0.81 1.367-1.767l1.357-1.738 0.5 0.418c0.28 0.233 0.7 0.56 0.947 0.738zM10.852 26.66c-0.498 0.742-0.918 1.37-0.932 1.39-0.037 0.050-0.832-0.137-1.428-0.335-0.625-0.21-1.395-0.6-1.695-0.858l-0.218-0.188 0.49-0.133c2.007-0.547 4.662-1.25 4.675-1.24 0.010 0.003-0.395 0.62-0.893 1.363zM13.242 25.535c1.063 0.365 2.033 0.573 3.29 0.707l0.348 0.038-0.938 0.337c-2.34 0.845-4.235 1.438-5.19 1.622-0.268 0.052-0.512 0.095-0.54 0.095s0.165-0.262 0.428-0.58c0.715-0.872 1.49-1.865 1.695-2.17 0.1-0.148 0.2-0.273 0.223-0.273 0.023 0.003 0.328 0.1 0.685 0.223zM16.73 27.505c-0.402 1.040-0.698 1.672-0.803 1.712-0.2 0.078-2.963-0.33-3.805-0.558-0.56-0.152-0.918-0.3-0.813-0.337 0.040-0.015 0.44-0.108 0.893-0.21 1.463-0.33 3.692-1.008 4.615-1.402 0.12-0.050 0.225-0.087 0.233-0.080 0.005 0.008-0.137 0.4-0.32 0.875z"></path>
</symbol>
<symbol id="icon--linkedin" viewBox="0 0 32 32">
<path d="M29 0.75h-26c-0.007-0-0.015-0-0.023-0-1.221 0-2.212 0.982-2.227 2.199v26.106c0.018 1.216 1.008 2.195 2.227 2.195 0.008 0 0.016-0 0.024-0h25.999c0.005 0 0.011 0 0.018 0 1.222 0 2.215-0.983 2.232-2.201l0-0.002v-26.105c-0.022-1.216-1.013-2.193-2.232-2.193-0.006 0-0.013 0-0.019 0h0.001zM9.793 26.75h-4.527v-14.568h4.527zM7.543 10.197c-0.001 0-0.002 0-0.003 0-1.45 0-2.625-1.175-2.625-2.625s1.175-2.625 2.625-2.625c1.45 0 2.625 1.175 2.625 2.625v0c-0.003 1.448-1.177 2.62-2.625 2.62-0.004 0-0.007 0-0.011-0h0.001zM26.75 26.75h-4.527v-7.087c0-1.688-0.030-3.86-2.352-3.86s-2.718 1.84-2.718 3.75v7.197h-4.52v-14.568h4.34v2h0.060c0.605-1.145 2.080-2.353 4.282-2.353 4.585-0.010 5.435 3.008 5.435 6.92z"></path>
</symbol>
<symbol id="icon--jquery" viewBox="0 0 32 32">
<path d="M16.321 26.732c-0.207-0.047-0.408-0.111-0.61-0.171l-0.152-0.046c-0.325-0.097-0.521-0.162-0.715-0.23l0.127 0.039-0.081-0.029c-0.297-0.102-0.468-0.167-0.639-0.234l0.12 0.042-0.146-0.057c-0.188-0.074-0.375-0.152-0.559-0.233l-0.112-0.049c-0.3-0.131-0.455-0.205-0.61-0.28l0.137 0.061-0.136-0.066c-0.123-0.060-0.244-0.123-0.365-0.186-0.081-0.043-0.164-0.083-0.244-0.128-0.22-0.117-0.363-0.198-0.504-0.282l0.066 0.036-0.148-0.082c-0.279-0.163-0.465-0.278-0.649-0.397l0.079 0.048-0.154-0.102c-0.19-0.121-0.322-0.21-0.453-0.301l0.047 0.031-0.131-0.092c-0.197-0.138-0.322-0.229-0.446-0.321l0.062 0.044-0.17-0.128c-0.154-0.117-0.266-0.205-0.378-0.295l0.032 0.025-0.154-0.124c-0.178-0.146-0.318-0.265-0.457-0.385l0.026 0.022-0.047-0.040c-0.171-0.151-0.318-0.285-0.464-0.422l0.011 0.010-0.127-0.123c-0.11-0.105-0.219-0.211-0.325-0.319l-0.128-0.127c-0.129-0.132-0.26-0.27-0.388-0.409l-0.012-0.013-0.019-0.021c-0.124-0.135-0.256-0.285-0.386-0.438l-0.019-0.023-0.106-0.126c-0.075-0.090-0.171-0.207-0.265-0.325l-0.027-0.035-0.107-0.133c-0.080-0.101-0.19-0.247-0.299-0.394l-0.038-0.054c-3.038-4.143-4.129-9.858-1.701-14.551l-2.153 2.73c-2.757 3.963-2.414 9.119-0.308 13.33 0.050 0.101 0.103 0.2 0.154 0.299l0.099 0.19 0.061 0.109 0.11 0.197c0.066 0.115 0.132 0.23 0.201 0.345l0.115 0.189c0.076 0.123 0.154 0.244 0.233 0.365l0.099 0.154c0.11 0.164 0.222 0.327 0.338 0.488l0.010 0.012 0.057 0.077c0.1 0.138 0.204 0.275 0.308 0.41l0.116 0.148c0.093 0.117 0.188 0.234 0.285 0.35l0.109 0.13c0.149 0.176 0.279 0.323 0.411 0.469l-0.014-0.016 0.008 0.008 0.016 0.017c0.142 0.154 0.273 0.292 0.406 0.428l-0.003-0.004 0.129 0.13c0.106 0.107 0.213 0.211 0.322 0.316l0.131 0.125c0.145 0.137 0.292 0.271 0.441 0.402l0.007 0.006 0.077 0.066c0.131 0.114 0.266 0.227 0.401 0.338l0.166 0.132c0.11 0.088 0.222 0.175 0.334 0.261l0.178 0.136c0.124 0.091 0.249 0.181 0.375 0.269l0.174 0.123c0.119 0.082 0.242 0.162 0.364 0.241l0.158 0.105c0.187 0.119 0.377 0.236 0.569 0.349l0.158 0.089c0.051 0.034 0.191 0.113 0.332 0.191l0.096 0.049c0.078 0.042 0.158 0.082 0.236 0.122 0.102 0.053 0.203 0.107 0.306 0.159l0.196 0.095c0.16 0.076 0.322 0.152 0.485 0.224l0.102 0.046c0.079 0.040 0.265 0.119 0.453 0.195l0.112 0.040 0.138 0.054c0.176 0.068 0.354 0.135 0.534 0.198l0.067 0.023c0.197 0.069 0.395 0.133 0.595 0.195l0.144 0.043c0.204 0.061 0.405 0.134 0.614 0.173 13.335 2.432 17.208-8.013 17.208-8.013-3.253 4.238-9.028 5.357-14.499 4.112zM11.517 15.924c0.299 0.428 0.63 0.938 1.026 1.282 0.15 0.164 0.296 0.316 0.446 0.463l0.002 0.002 0.118 0.116c0.143 0.139 0.292 0.278 0.444 0.413l0.013 0.012 0.018 0.016 0.005 0.005c0.154 0.135 0.328 0.279 0.505 0.42l0.029 0.022 0.121 0.095c0.148 0.115 0.329 0.249 0.514 0.379l0.044 0.029 0.016 0.012c0.084 0.058 0.17 0.112 0.255 0.168l0.12 0.080c0.136 0.087 0.274 0.172 0.414 0.254l0.059 0.034c0.121 0.070 0.243 0.138 0.366 0.204l0.13 0.068c0.085 0.044 0.169 0.090 0.256 0.133l0.039 0.017c0.175 0.087 0.353 0.17 0.534 0.249l0.118 0.049c0.062 0.031 0.207 0.091 0.353 0.148l0.085 0.029 0.188 0.069c0.133 0.049 0.267 0.095 0.402 0.14l0.182 0.058c0.192 0.059 0.381 0.135 0.581 0.168 10.296 1.706 12.672-6.221 12.672-6.221-2.142 3.086-6.292 4.558-10.72 3.409-0.285-0.073-0.48-0.131-0.672-0.193l0.089 0.025-0.175-0.057c-0.218-0.069-0.353-0.116-0.488-0.167l0.080 0.026-0.184-0.069c-0.244-0.091-0.389-0.151-0.532-0.213l0.093 0.036-0.118-0.050c-0.255-0.11-0.431-0.193-0.605-0.281l0.068 0.031c-0.091-0.044-0.18-0.091-0.27-0.137l-0.155-0.080c-0.17-0.091-0.282-0.155-0.392-0.221l0.051 0.028-0.081-0.046c-0.192-0.111-0.326-0.194-0.459-0.28l0.047 0.028-0.125-0.083c-0.15-0.096-0.238-0.154-0.324-0.213l0.057 0.037c-0.231-0.16-0.412-0.294-0.59-0.432l0.033 0.025-0.125-0.099c-1.938-1.53-3.474-3.621-4.205-5.993-0.765-2.459-0.6-5.22 0.726-7.46l-1.629 2.3c-1.994 2.87-1.886 6.711-0.33 9.746 0.293 0.572 0.586 1.054 0.909 1.513l-0.027-0.040zM22.369 12.374c0.085 0.031 0.169 0.059 0.256 0.088l0.113 0.036c0.121 0.038 0.241 0.082 0.367 0.106 5.685 1.098 7.227-2.917 7.637-3.508-1.351 1.945-3.62 2.412-6.406 1.736-0.22-0.053-0.462-0.133-0.674-0.208-0.329-0.117-0.593-0.229-0.85-0.354l0.049 0.022c-0.536-0.26-0.996-0.545-1.423-0.871l0.020 0.015c-2.492-1.891-4.040-5.498-2.414-8.436l-0.88 1.213c-1.175 1.73-1.291 3.878-0.475 5.789 0.86 2.028 2.623 3.619 4.68 4.373z"></path>
</symbol>
<symbol id="icon--javascript" viewBox="0 0 32 32">
<path d="M0.5 0.25v31.25h31.25v-31.25h-31.25zM17.030 26.878c-0.461 0.937-1.342 1.553-2.362 1.85-1.568 0.36-3.067 0.155-4.183-0.515-0.746-0.458-1.329-1.163-1.725-1.975l2.38-1.457c0.021 0.009 0.083 0.122 0.167 0.268 0.303 0.509 0.565 0.869 1.080 1.121 0.505 0.172 1.615 0.283 2.044-0.607 0.262-0.453 0.178-1.907 0.178-3.516-0-2.529 0.011-5.047 0.011-7.547h2.927c0 2.75 0.015 5.355 0 8.038 0.006 1.645 0.149 3.111-0.517 4.34zM29.173 26.051c-1.018 3.48-6.691 3.593-8.957 1.294-0.479-0.541-0.779-0.824-1.065-1.449 1.205-0.693 1.205-0.693 2.377-1.371 0.637 0.979 1.226 1.517 2.285 1.737 1.437 0.175 2.883-0.318 2.558-1.845-0.333-1.247-2.942-1.55-4.718-2.883-1.803-1.211-2.225-4.153-0.744-5.834 0.494-0.622 1.336-1.086 2.219-1.309l0.922-0.119c1.77-0.036 2.877 0.432 3.689 1.339 0.226 0.229 0.41 0.476 0.756 1.011-0.943 0.601-0.94 0.595-2.291 1.47-0.288-0.622-0.767-1.012-1.273-1.181-0.785-0.238-1.776 0.021-1.982 0.851-0.071 0.256-0.056 0.494 0.057 0.916 0.318 0.726 1.386 1.041 2.344 1.482 2.758 1.119 3.689 2.318 3.918 3.745 0.221 1.229-0.053 2.026-0.095 2.145z"></path>
</symbol>
<symbol id="icon--html" viewBox="0 0 32 32">
<path d="M2.258 0.5l2.501 28.023 11.224 3.1 11.255-3.097 2.504-28.027h-27.484zM24.54 7.135l-0.157 1.793-0.069 0.822h-13.166l0.314 3.5h12.539l-0.084 0.868-0.808 9.030-0.059 0.567-7.058 1.942-7.044-1.856-0.478-5.302h3.454l0.245 2.73 3.833 1.020v-0.137l3.839-0.969 0.401-4.395h-11.925l-0.846-9.529-0.082-0.971h17.235l-0.082 0.885z"></path>
</symbol>
<symbol id="icon--gulp" viewBox="0 0 32 32">
<path d="M9.241 8.865c4.515 1.126 8.97 1.12 13.522 0.017-0.053 0.607-0.089 1.194-0.157 1.777-0.228 1.97-0.453 3.94-0.709 5.906-0.105 0.805-0.894 0.972-1.472 1.345 0.257-0.339 0.536-0.664 0.764-1.021 0.209-0.328 0.513-0.698 0.112-1.077-0.387-0.367-0.783-0.158-1.151 0.079-0.117 0.075-0.215 0.178-0.323 0.269l-0.354-0.375c-0.152 0.17-0.386 0.317-0.443 0.514-0.233 0.813-0.871 1.193-1.636 1.537 0.046-0.192 0.070-0.394 0.143-0.576 0.434-1.079 0.896-2.146 1.307-3.234 0.077-0.205-0.031-0.481-0.054-0.725-0.197 0.155-0.488 0.269-0.574 0.471-0.502 1.18-0.963 2.377-1.42 3.575-0.144 0.379-0.363 0.594-0.874 0.575 0.108-0.362 0.194-0.681 0.3-0.992 0.071-0.208 0.218-0.4 0.245-0.61 0.027-0.208-0.055-0.43-0.088-0.645-0.168 0.13-0.389 0.227-0.492 0.396-0.248 0.409-0.406 0.873-0.668 1.271-0.16 0.244-0.445 0.405-0.673 0.604l-0.24-0.145c0.151-0.425 0.303-0.85 0.453-1.275 0.097-0.275 0.476-0.618 0.058-0.822-0.424-0.206-0.55 0.267-0.675 0.563-0.203 0.478-0.416 0.962-0.53 1.465-0.057 0.253 0.004 0.684 0.172 0.799 0.21 0.143 0.599 0.099 0.886 0.030 0.236-0.056 0.437-0.264 0.674-0.418 0.106 0.566 0.43 0.659 0.941 0.428 0.154-0.070 0.377 0.034 0.565 0.017 0.445-0.039 0.887-0.102 1.323-0.154-0.154 0.339-0.381 0.779-0.554 1.241-0.108 0.289-0.433 0.695 0.029 0.886 0.431 0.177 0.542-0.288 0.671-0.591 0.296-0.701 0.549-1.423 0.88-2.107 0.198-0.409 0.487-0.782 0.782-1.13 0.145-0.171 0.399-0.25 0.603-0.371l0.123 0.148c-0.285 0.373-0.611 0.724-0.841 1.129-0.142 0.247-0.138 0.578-0.199 0.872 0.32 0.034 0.672 0.167 0.951 0.076 0.383-0.125 0.711-0.421 1.128-0.685-0.126 1.144-0.246 2.242-0.369 3.34-0.063 0.557-0.153 1.113-0.194 1.671-0.044 0.607-0.291 1.013-0.909 1.179l0.106-0.025c-1.283 0.354-2.634 0.544-4.029 0.544-0.399 0-0.795-0.015-1.134-0.043-1.155-0.085-2.312-0.225-3.448-0.444-0.973-0.188-1.135-0.444-1.231-1.432-0.124-1.294-0.229-2.591-0.331-3.746l1.81-0.833c-0.076 0.311-0.185 0.642-0.227 0.982-0.019 0.15 0.098 0.316 0.154 0.475 0.138-0.088 0.361-0.149 0.401-0.27l-0.197 0.657c0.41-1.19 0.797-2.391 1.331-4.264 0.038-0.13-0.144-0.324-0.224-0.489-0.167 0.141-0.434 0.253-0.483 0.427-0.227 0.803-0.639 1.476-1.303 1.97-0.204 0.152-0.498 0.184-0.751 0.271-0.064-0.259-0.216-0.533-0.178-0.776 0.198-1.259 0.719-2.379 1.643-3.273 0.496-0.479 0.766-0.414 1.214 0.141 0.105 0.13 0.314 0.178 0.475 0.263 0.048-0.215 0.185-0.458 0.128-0.639-0.214-0.676-1.080-1.034-1.74-0.653-0.506 0.292-0.97 0.713-1.339 1.169-0.396 0.49-0.659 1.088-1.021 1.712-0.223-2.346-0.44-4.642-0.659-6.95zM11.195 24.207c3.080 0.87 6.217 0.846 9.431 0.048-1.148 1.691-0.671 3.595-0.885 5.39-0.044 0.369-0.108 0.632-0.449 0.831-2.291 1.334-4.557 1.123-6.802-0.097-0.152-0.083-0.275-0.342-0.294-0.531-0.13-1.296-0.177-2.602-0.361-3.889-0.087-0.605-0.42-1.174-0.639-1.753zM18.943 9.187c1.090-0.105 2.168-0.361 3.246-0.573 0.203-0.040 0.384-0.194 0.575-0.296-0.252-0.221-0.47-0.328-0.697-0.354-1.133-0.134-2.269-0.237-3.401-0.377-0.171-0.021-0.476-0.232-0.463-0.271 0.33-0.995 0.314-2.121 1.064-2.96 0.947-1.060 1.904-2.111 2.854-3.162-0.706-0.76-0.716-0.761-1.356-0.096-0.362 0.376-0.693 0.787-1.085 1.128-1.453 1.26-2.474 2.751-2.673 4.718-0.046 0.451-0.294 0.614-0.767 0.621-1.564 0.023-3.13 0.066-4.69 0.168-0.773 0.051-1.537 0.249-2.305 0.381l-0.007 0.287c0.481 0.148 0.952 0.343 1.443 0.437 2.736 0.524 5.498 0.614 8.264 0.348zM18.069 8.5c-0.619 0.5-1.131 0.5-1.625 0h1.625z"></path>
</symbol>
<symbol id="icon--github" viewBox="0 0 32 32">
<path d="M16 1.276c-8.337 0-15.097 6.759-15.097 15.097 0 6.671 4.326 12.329 10.324 14.326 0.754 0.14 1.031-0.328 1.031-0.726 0-0.36-0.014-1.549-0.021-2.811-4.2 0.913-5.086-1.781-5.086-1.781-0.687-1.745-1.676-2.209-1.676-2.209-1.37-0.937 0.103-0.918 0.103-0.918 1.516 0.106 2.314 1.556 2.314 1.556 1.347 2.308 3.532 1.64 4.393 1.255 0.136-0.976 0.527-1.642 0.959-2.019-3.353-0.381-6.878-1.676-6.878-7.461 0-1.648 0.59-2.995 1.556-4.053-0.157-0.38-0.674-1.915 0.146-3.995 0 0 1.268-0.406 4.152 1.548 1.204-0.335 2.496-0.503 3.779-0.509 1.282 0.006 2.575 0.174 3.782 0.508 2.881-1.953 4.148-1.548 4.148-1.548 0.822 2.079 0.305 3.615 0.148 3.995 0.968 1.057 1.554 2.404 1.554 4.053 0 5.799-3.532 7.075-6.893 7.449 0.542 0.468 1.024 1.387 1.024 2.796 0 2.020-0.017 3.646-0.017 4.143 0 0.402 0.272 0.872 1.037 0.724 5.995-1.998 10.316-7.655 10.316-14.323-0-8.338-6.76-15.097-15.097-15.097z"></path>
<path d="M6.621 22.951c-0.033 0.075-0.151 0.098-0.259 0.046-0.11-0.049-0.171-0.151-0.136-0.227 0.032-0.078 0.151-0.099 0.26-0.047 0.11 0.049 0.173 0.152 0.134 0.227zM7.232 23.634c-0.072 0.067-0.213 0.036-0.308-0.070-0.099-0.105-0.117-0.246-0.044-0.314 0.074-0.067 0.211-0.035 0.31 0.070 0.098 0.107 0.118 0.246 0.043 0.314zM7.828 24.503c-0.093 0.064-0.244 0.004-0.338-0.13-0.093-0.134-0.093-0.296 0.003-0.36 0.093-0.064 0.242-0.006 0.338 0.127 0.092 0.136 0.092 0.297-0.003 0.363zM8.643 25.343c-0.082 0.091-0.259 0.067-0.388-0.058-0.132-0.122-0.168-0.295-0.086-0.386 0.084-0.091 0.261-0.066 0.391 0.058 0.132 0.122 0.171 0.295 0.083 0.386zM9.768 25.831c-0.037 0.118-0.206 0.172-0.377 0.122-0.171-0.052-0.283-0.19-0.248-0.309s0.206-0.175 0.378-0.121c0.171 0.052 0.283 0.189 0.247 0.309zM11.004 25.921c0.004 0.125-0.141 0.227-0.32 0.23-0.181 0.004-0.327-0.097-0.329-0.219 0-0.126 0.142-0.227 0.322-0.231 0.179-0.003 0.326 0.097 0.326 0.22zM12.153 25.726c0.021 0.121-0.103 0.246-0.281 0.279-0.175 0.032-0.338-0.043-0.36-0.163-0.021-0.125 0.105-0.249 0.28-0.282 0.178-0.031 0.338 0.043 0.361 0.166z"></path>
</symbol>
<symbol id="icon--git" viewBox="0 0 32 32">
<path d="M31.186 14.595l-13.779-13.778c-0.793-0.793-2.080-0.793-2.874 0l-2.861 2.861 3.63 3.629c0.844-0.285 1.811-0.094 2.483 0.579 0.437 0.437 0.707 1.040 0.707 1.707 0 0.283-0.049 0.556-0.139 0.808l0.005-0.017 3.498 3.498c0.846-0.292 1.823-0.103 2.498 0.574 0.945 0.944 0.945 2.475 0 3.42-0.438 0.438-1.042 0.709-1.71 0.709s-1.273-0.271-1.71-0.709v0c-0.437-0.438-0.708-1.042-0.708-1.71 0-0.332 0.067-0.648 0.188-0.936l-0.006 0.016-3.262-3.262-0 8.585c0.246 0.123 0.457 0.276 0.64 0.457l-0-0c0.945 0.944 0.945 2.474 0 3.421-0.945 0.944-2.476 0.944-3.42 0-0.944-0.946-1.022-2.476-0.078-3.421 0.233-0.233 0.464-0.41 0.714-0.527v-8.665c-0.25-0.118-0.48-0.293-0.714-0.528-0.715-0.715-0.849-1.765-0.482-2.644l-3.558-3.578-9.438 9.447c-0.794 0.794-0.789 2.081 0.005 2.875l13.781 13.778c0.793 0.794 2.081 0.794 2.876 0l13.715-13.715c0.794-0.794 0.794-2.082 0.001-2.875z"></path>
</symbol>
<symbol id="icon--firebase" viewBox="0 0 32 32">
<path d="M6.838 20.13l2.67-17.11c0.092-0.583 0.875-0.723 1.15-0.2l2.87 5.37-6.69 11.94zM25.823 24.288l-2.547-15.76c-0.078-0.49-0.69-0.69-1.043-0.338l-16.055 16.098 8.885 4.988c0.259 0.145 0.568 0.231 0.897 0.231s0.639-0.085 0.907-0.235l-0.009 0.005 8.965-4.988zM18.61 10.537l-2.058-3.912c-0.23-0.445-0.86-0.445-1.090 0l-9.037 16.113 12.185-12.2z"></path>
</symbol>
<symbol id="icon--facebook" viewBox="0 0 32 32">
<path d="M29.105 1.268h-26.21c-0.897 0-1.625 0.728-1.625 1.625v0 26.212c0 0.897 0.728 1.625 1.625 1.625v0h14.105v-11.407h-3.835v-4.447h3.835v-3.28c0-3.805 2.325-5.878 5.72-5.878 0.033-0 0.073-0 0.112-0 1.169 0 2.322 0.064 3.458 0.188l-0.14-0.012v3.978h-2.348c-1.848 0-2.205 0.877-2.205 2.165v2.84h4.402l-0.573 4.447h-3.83v11.41h7.5c0.897-0.001 1.624-0.728 1.625-1.625v-26.213c0-0.001 0-0.002 0-0.003 0-0.895-0.723-1.621-1.617-1.625h-0z"></path>
</symbol>
<symbol id="icon--dotnetcore" viewBox="0 0 32 32">
<path d="M15.299 0h1.238c3.23 0.134 6.422 1.222 9.011 3.169 2.452 1.822 4.368 4.359 5.432 7.226 0.61 1.597 0.916 3.295 1.020 4.998v1.053c-0.104 2.823-0.916 5.63-2.433 8.020-1.7 2.724-4.23 4.933-7.182 6.207-1.8 0.801-3.896 1.285-6.1 1.326l-0.015 0h-0.536c-2.934-0.048-5.853-0.915-8.324-2.498-2.799-1.778-5.029-4.446-6.257-7.529-0.68-1.675-1.043-3.468-1.153-5.27v-1.239c0.126-3.598 1.488-7.152 3.853-9.874 1.939-2.262 4.522-3.97 7.369-4.856 1.321-0.417 2.697-0.632 4.077-0.734zM6.298 9.381c-0.008 3.038-0.003 6.076-0.003 9.114 0.357 0.003 0.715 0.003 1.073 0.003-0.019-2.608 0.025-5.216-0.027-7.823 0.12 0.227 0.229 0.46 0.366 0.677 1.551 2.377 3.068 4.774 4.619 7.149 0.434-0.006 0.869-0.006 1.303 0.001-0.001-3.040-0.002-6.080 0.001-9.12-0.223-0.002-0.485-0.004-0.749-0.004-0.11 0-0.221 0-0.331 0.001l0.017-0c0.019 2.58-0.034 5.16 0.031 7.737-1.627-2.588-3.275-5.161-4.924-7.736-0.17-0.001-0.371-0.002-0.572-0.002-0.284 0-0.567 0.001-0.85 0.004l0.043-0zM16.009 9.378c-0.032 3.040-0.001 6.080-0.012 9.119 1.617-0.004 3.235 0.006 4.852-0.005-0.002-0.109-0.003-0.238-0.003-0.367 0-0.218 0.003-0.436 0.010-0.652l-0.001 0.032c-1.253-0.004-2.507 0.002-3.761-0.005-0.018-1.052-0.001-2.107-0.010-3.159 1.099-0.020 2.198 0.003 3.295-0.012-0.003-0.319-0.003-0.639-0.005-0.958-1.097 0.035-2.193-0.014-3.291 0.003 0.003-1.006 0.005-2.013 0.005-3.019 1.175 0 2.349-0.005 3.523 0.003-0.002-0.325 0-0.652 0.004-0.976-1.536-0.004-3.072-0.002-4.608-0.002zM21.659 9.392c0.001 0.316 0.001 0.632 0.002 0.947 0.872-0.010 1.743 0.027 2.615 0.009-0.006 2.716 0.001 5.429-0.003 8.144 0.365 0.011 0.733 0.009 1.098-0.023-0.030-1.498 0.029-2.997-0.039-4.494 0.017-0.675-0.017-1.348 0.029-2.023 0.026-0.535-0.069-1.069-0.009-1.604 0.879 0.012 1.759 0.004 2.637 0.004-0.001-0.056-0.001-0.121-0.001-0.187 0-0.271 0.007-0.541 0.021-0.809l-0.002 0.037c-2.117-0.026-4.234-0.024-6.349-0.002zM3.388 17.273c-0.494 0.227-0.526 1.006-0.037 1.257 0.43 0.295 1.076-0.093 1.057-0.602 0.033-0.501-0.572-0.922-1.019-0.654zM10.695 21.096c-1.069 0.867-1.056 2.799 0.125 3.563 0.667 0.424 1.526 0.336 2.23 0.054 0.003-0.155 0.007-0.31 0.012-0.465-0.668 0.349-1.602 0.42-2.169-0.152-0.741-0.809-0.574-2.317 0.403-2.869 0.553-0.291 1.227-0.206 1.771 0.060-0.002-0.165-0.001-0.33 0-0.495-0.774-0.275-1.73-0.26-2.374 0.305zM14.997 21.773c-0.473 0.055-0.94 0.305-1.158 0.741-0.313 0.624-0.277 1.467 0.216 1.99 0.509 0.574 1.486 0.58 2.045 0.074 0.606-0.577 0.675-1.617 0.189-2.291-0.287-0.407-0.818-0.546-1.292-0.514zM19.468 22.454c-0.415 0.721-0.333 1.813 0.399 2.303 0.546 0.305 1.233 0.208 1.768-0.077-0.001-0.154 0.001-0.309 0.008-0.462-0.422 0.267-0.984 0.464-1.453 0.194-0.327-0.18-0.426-0.564-0.479-0.906 0.719-0.010 1.436-0.020 2.156-0.018-0.019-0.457-0.029-0.974-0.363-1.327-0.55-0.608-1.661-0.414-2.038 0.294zM17.365 21.87v3.002c0.163 0 0.328 0 0.493 0.001 0.006-0.549-0.010-1.099 0.006-1.648 0.004-0.317 0.132-0.64 0.371-0.854 0.2-0.151 0.471-0.067 0.7-0.061-0.003-0.159-0.005-0.317-0.006-0.476-0.448-0.099-0.834 0.163-1.061 0.529-0.005-0.158-0.010-0.317-0.013-0.474-0.164-0.006-0.328-0.013-0.491-0.020z"></path>
<path d="M14.69 22.306c0.413-0.201 1.006-0.102 1.236 0.325 0.262 0.472 0.257 1.096-0.034 1.553-0.38 0.572-1.382 0.447-1.631-0.186-0.252-0.564-0.154-1.371 0.429-1.692zM19.76 23.104c0.012-0.393 0.286-0.784 0.681-0.87 0.244-0.041 0.524 0.002 0.693 0.198 0.168 0.178 0.203 0.428 0.245 0.66-0.54 0.003-1.080-0.008-1.62 0.012z"></path>
</symbol>
<symbol id="icon--dotnet" viewBox="0 0 32 32">
<path d="M11.322 12.39c1.104 3.377 1.523 9.4 4.752 9.4 0.245 0 0.494-0.024 0.744-0.072-2.935-0.684-3.283-6.642-5.074-9.728-0.151 0.138-0.288 0.268-0.423 0.401l0.002-0.002z"></path>
<path d="M11.743 11.991c1.791 3.085 2.139 9.043 5.074 9.728 0.268-0.051 0.501-0.116 0.726-0.198l-0.032 0.010c-2.635-1.291-3.363-7.076-5.397-9.862-0.123 0.102-0.247 0.21-0.37 0.321z"></path>
<path d="M14.323 10.156c-0.245 0-0.494 0.024-0.744 0.072-0.653 0.123-1.317 0.405-1.986 0.83 0.182 0.181 0.357 0.387 0.52 0.612 0.681-0.565 1.357-0.982 2.030-1.233 0.213-0.083 0.467-0.156 0.729-0.206l0.028-0.005c-0.171-0.045-0.368-0.070-0.57-0.070-0.002 0-0.005 0-0.008 0h0z"></path>
<path d="M19.567 20.341c0.297-0.238 0.561-0.47 0.814-0.714l-0.004 0.004c-1.122-3.361-1.524-9.471-4.775-9.471-0.232 0-0.467 0.022-0.701 0.065 2.962 0.737 3.341 7.181 4.666 10.116z"></path>
<path d="M14.901 10.226c-0.171-0.045-0.368-0.070-0.57-0.070-0.003 0-0.005 0-0.008 0h0l1.278 0.005c-0.232 0-0.467 0.021-0.701 0.066z"></path>
<path d="M19.51 21.055c-0.128-0.124-0.248-0.253-0.36-0.388l-0.006-0.008c-0.547 0.387-1.092 0.681-1.633 0.872 0.193 0.094 0.395 0.164 0.609 0.207 0.166 0.034 0.338 0.052 0.519 0.052 0.608 0 1.088-0.072 1.497-0.268-0.225-0.122-0.431-0.279-0.625-0.467z"></path>
<path d="M14.143 10.437c2.653 1.387 2.883 7.671 5 10.222 0.142-0.1 0.282-0.206 0.423-0.318-1.325-2.935-1.704-9.38-4.665-10.116-0.253 0.047-0.505 0.117-0.758 0.211z"></path>
<path d="M12.113 11.669c2.034 2.785 2.762 8.571 5.397 9.862 0.541-0.191 1.087-0.485 1.633-0.872-2.117-2.551-2.348-8.835-5-10.222-0.673 0.251-1.349 0.668-2.030 1.232z"></path>
<path d="M10.021 12.309c-0.319 0.721-0.645 1.668-1.038 2.905 0.783-1.103 1.563-2.053 2.339-2.824-0.117-0.366-0.234-0.665-0.367-0.954l0.022 0.053c-0.352 0.271-0.663 0.54-0.96 0.824l0.004-0.004z"></path>
<path d="M11.259 11.28c-0.094 0.067-0.188 0.136-0.283 0.208 0.124 0.27 0.238 0.573 0.345 0.902 0.132-0.13 0.27-0.26 0.409-0.388l0.012-0.011c-0.156-0.271-0.316-0.503-0.492-0.721l0.008 0.011z"></path>
<path d="M11.593 11.057c-0.111 0.070-0.222 0.145-0.334 0.223 0.174 0.214 0.333 0.453 0.484 0.711 0.124-0.112 0.247-0.22 0.37-0.322-0.164-0.225-0.338-0.431-0.52-0.612z"></path>
<path d="M29.688 9.899c-1.5 5.786-4.634 10.434-7.261 11.605h-0.005l-0.142 0.061-0.017 0.007-0.040 0.015-0.018 0.008-0.093 0.033-0.033 0.011-0.032 0.011-0.028 0.009-0.056 0.017-0.024 0.006-0.064 0.017-0.041 0.011-0.050 0.011c0.119 0.044 0.242 0.066 0.376 0.066 2.491 0 5.003-4.465 9.159-11.889l-1.632 0.001z"></path>
<path d="M8.441 10.391l0.005-0.004 0.006-0.004h0.003l0.040-0.015 0.008-0.004 0.011-0.004 0.043-0.015h0.002l0.096-0.034 0.014-0.004 0.041-0.012 0.019-0.006 0.041-0.012 0.016-0.004 0.137-0.036 0.019-0.004 0.040-0.008 0.020-0.006 0.040-0.008h0.009l0.083-0.015h0.017l0.039-0.007 0.022-0.004 0.037-0.005 0.020-0.004 0.089-0.008c-0.079-0.008-0.171-0.013-0.265-0.014h-0.001c-2.806 0-6.671 5.205-8.412 11.947h0.336c0.266-0.43 0.77-1.352 1.259-2.282l0.256-0.534c1.22-4.775 3.704-8.031 5.91-8.894z"></path>
<path d="M10.021 12.309c0.292-0.28 0.604-0.549 0.929-0.8l0.027-0.020c-0.080-0.177-0.156-0.321-0.239-0.461l0.011 0.021c-0.257 0.312-0.491 0.723-0.728 1.261z"></path>
<path d="M10.251 10.43c0.183 0.153 0.348 0.365 0.498 0.618 0.047-0.058 0.095-0.112 0.145-0.162-0.195-0.185-0.418-0.343-0.662-0.467l-0.016-0.007 0.030 0.014 0.005 0.004z"></path>
<path d="M2.532 19.285c2.558-4.93 3.77-8.050 5.91-8.894-2.206 0.864-4.691 4.12-5.91 8.894z"></path>
<path d="M10.893 10.886c-0.050 0.051-0.097 0.104-0.145 0.162 0.081 0.134 0.155 0.281 0.228 0.44 0.095-0.072 0.189-0.141 0.282-0.208-0.116-0.144-0.236-0.272-0.363-0.392l-0.002-0.002z"></path>
<path d="M3.693 22.079l-0.046 0.006h-0.009l-0.039 0.004h-0.006l-0.094 0.006h-0.010c2.589-0.073 3.773-1.369 4.36-3.249 0.446-1.425 0.813-2.626 1.134-3.634-1.085 1.526-2.174 3.346-3.269 5.385-0.528 0.983-1.331 1.393-2.020 1.48z"></path>
<path d="M3.693 22.078c0.689-0.088 1.492-0.498 2.020-1.481 1.095-2.038 2.185-3.858 3.269-5.384 0.394-1.237 0.72-2.184 1.038-2.905-2.16 2.056-4.328 5.474-6.327 9.769z"></path>
<path d="M2.532 19.285c-0.744 1.462-1.248 2.384-1.767 3.296l0.251-0.48h0.976c0.144-1.095 0.333-2.050 0.576-2.982l-0.037 0.166z"></path>
<path d="M9.268 10.177l-0.021 0.004-0.037 0.005-0.060 0.011-0.017 0.004-0.083 0.014h-0.009l-0.040 0.008-0.020 0.005-0.039 0.008-0.018 0.005-0.137 0.036-0.016 0.005-0.041 0.012-0.019 0.005-0.041 0.012-0.015 0.004-0.095 0.034-0.043 0.015-0.018 0.008-0.040 0.015-0.014 0.007c-2.139 0.844-3.351 3.964-5.91 8.894-0.208 0.767-0.397 1.722-0.526 2.695l-0.013 0.121h0.137l0.939-0.004h0.431l0.094-0.006h0.006l0.039-0.004h0.009l0.046-0.006c2-4.296 4.168-7.713 6.327-9.769 0.238-0.538 0.472-0.949 0.728-1.26-0.15-0.253-0.314-0.465-0.497-0.619l-0.005-0.004-0.030-0.015-0.030-0.015-0.029-0.014-0.035-0.014-0.027-0.012-0.057-0.024-0.024-0.009-0.042-0.017-0.023-0.008-0.059-0.020h-0.005l-0.068-0.019-0.015-0.005-0.070-0.020c-0.034-0.009-0.082-0.020-0.13-0.029l-0.012-0.002-0.015-0.004-0.062-0.010-0.012-0.004-0.073-0.010h-0.013l-0.056-0.006-0.089 0.008z"></path>
<path d="M23.828 13.102c-0.492 1.577-0.891 2.877-1.238 3.948 1.351-1.859 2.681-4.197 3.948-6.895-1.478 0.464-2.266 1.527-2.71 2.947z"></path>
<path d="M22.633 21.405c-0.069 0.035-0.138 0.068-0.206 0.099 2.627-1.172 5.761-5.819 7.261-11.605h-0.304c-3.447 6.158-4.555 10.28-6.751 11.507z"></path>
<path d="M20.917 20.888c0.572-0.698 1.037-1.884 1.673-3.838-0.733 1.007-1.471 1.873-2.21 2.579l-0.004 0.006c0.161 0.483 0.338 0.909 0.54 1.253z"></path>
<path d="M20.917 20.888c-0.195 0.238-0.401 0.418-0.63 0.552-0.050 0.029-0.101 0.057-0.152 0.082 0.232 0.128 0.503 0.218 0.791 0.252l0.010 0.001 0.131 0.012h0.008l0.063 0.004h0.214l0.024-0.004 0.047-0.004h0.023l0.051-0.006h0.004l0.016-0.004 0.055-0.009h0.016l0.061-0.010h0.010l0.123-0.026c-0.339-0.124-0.623-0.417-0.867-0.834z"></path>
<path d="M16.074 21.79c0.245 0 0.494-0.024 0.743-0.072 0.268-0.051 0.501-0.115 0.725-0.197l-0.032 0.010c0.193 0.094 0.395 0.164 0.609 0.208 0.166 0.034 0.338 0.051 0.519 0.051h-2.564zM18.638 21.79c0.607 0 1.088-0.072 1.497-0.268 0.232 0.128 0.503 0.218 0.791 0.252l0.010 0.001 0.131 0.011h0.008l0.063 0.004h-2.5z"></path>
<path d="M21.213 21.79h0.14l0.024-0.004 0.048-0.004h0.023l0.051-0.006h0.004l0.015-0.004 0.055-0.008 0.017-0.004 0.062-0.010h0.010l0.123-0.026c0.119 0.044 0.242 0.066 0.376 0.066l-0.947 0.004-0-0.005z"></path>
<path d="M20.378 19.635v-0.004c-0.249 0.24-0.513 0.472-0.787 0.692l-0.023 0.018c-0.117 0.094-0.254 0.198-0.395 0.299l-0.028 0.019c0.119 0.142 0.24 0.275 0.367 0.396 0.193 0.187 0.399 0.345 0.625 0.467 0.051-0.025 0.102-0.053 0.152-0.082 0.23-0.134 0.435-0.315 0.63-0.552-0.201-0.344-0.378-0.77-0.539-1.253z"></path>
<path d="M28.421 9.899h-1.53l-0.242 0.012-0.113 0.242c-1.267 2.698-2.597 5.036-3.948 6.895-0.635 1.954-1.101 3.141-1.672 3.838 0.244 0.417 0.529 0.71 0.866 0.834l0.026-0.006h0.006l0.019-0.004 0.043-0.011 0.025-0.007 0.038-0.010 0.023-0.007 0.056-0.017 0.028-0.009 0.032-0.012 0.032-0.010 0.026-0.010 0.066-0.023 0.018-0.007 0.041-0.016 0.017-0.006 0.142-0.061h0.005c0.068-0.030 0.137-0.064 0.205-0.099 2.196-1.227 3.305-5.349 6.752-11.507l-0.962-0.001z"></path>
<path d="M9.358 10.169l0.016 0.004 0.040 0.004h0.014l0.073 0.009 0.012 0.004 0.062 0.010 0.015 0.004 0.142 0.031 0.013 0.004 0.057 0.016 0.016 0.005 0.068 0.019 0.005 0.004 0.059 0.020 0.023 0.007 0.043 0.017 0.024 0.008 0.056 0.024 0.027 0.012 0.034 0.015 0.030 0.014 0.030 0.015c0.245 0.12 0.47 0.28 0.678 0.475 0.077-0.081 0.157-0.153 0.241-0.219-0.456-0.323-0.973-0.508-1.568-0.508-0.069 0-0.138 0.004-0.208 0.009z"></path>
<path d="M10.893 10.886c0.128 0.119 0.25 0.251 0.366 0.394 0.112-0.078 0.223-0.153 0.334-0.223-0.139-0.14-0.289-0.268-0.449-0.383l-0.011-0.007c-0.083 0.065-0.163 0.138-0.24 0.219z"></path>
<path d="M9.292 10.185l0.208-0.009c0.596 0 1.112 0.184 1.567 0.507 0.481-0.38 1.063-0.512 1.87-0.512h-3.911l0.265 0.014z"></path>
<path d="M12.938 10.172c-0.808 0-1.388 0.133-1.87 0.512 0.159 0.112 0.313 0.244 0.459 0.39 0.67-0.425 1.333-0.708 1.986-0.83 0.25-0.047 0.498-0.071 0.743-0.071l-1.319-0.001z"></path>
<path d="M22.59 17.050c0.348-1.071 0.745-2.371 1.238-3.948 0.444-1.421 1.231-2.483 2.709-2.947l0.114-0.242c-2.409 0.144-3.535 1.37-4.101 3.184-0.991 3.168-1.591 5.222-2.169 6.531 0.738-0.706 1.476-1.572 2.209-2.578z"></path>
</symbol>
<symbol id="icon--css" viewBox="0 0 32 32">
<path d="M2.19 0.25l2.514 28.221 11.28 3.145 11.311-3.157 2.516-28.209h-27.62zM24.588 6.715l-0.837 9.401 0.003 0.051-0.003 0.117v-0.001l-0.595 6.573-0.066 0.584-7.096 1.966-7.078-1.972-0.479-5.435h3.471l0.246 2.764 3.846 1.044 3.861-1.057 0.408-4.5h-8.071l-0.069-0.761-0.158-1.782-0.083-0.957h8.687l0.316-3.5h-13.232l-0.069-0.76-0.157-1.783-0.083-0.957h17.32l-0.083 0.965z"></path>
</symbol>
<symbol id="icon--csharp" viewBox="0 0 32 32">
<path d="M29.375 8.375l0.075-0.050c-0.15-0.275-0.375-0.525-0.6-0.65l-12.075-6.95c-0.2-0.125-0.475-0.175-0.775-0.175s-0.575 0.075-0.775 0.175l-12 6.975c-0.425 0.25-0.725 0.875-0.725 1.35v13.925c0 0.275 0.050 0.575 0.225 0.85l-0.050 0.025c0.125 0.2 0.3 0.375 0.475 0.475l12.050 6.975c0.2 0.125 0.475 0.175 0.775 0.175s0.575-0.075 0.775-0.175l12-6.975c0.425-0.25 0.725-0.875 0.725-1.35v-13.95c0.025-0.2 0-0.425-0.1-0.65zM16 25.875c-5.45 0-9.875-4.425-9.875-9.875s4.425-9.875 9.875-9.875c3.675 0 6.875 2.025 8.575 5l-3.25 1.875c-1.050-1.875-3.050-3.125-5.325-3.125-3.375 0-6.125 2.75-6.125 6.125s2.75 6.125 6.125 6.125c2.275 0 4.275-1.25 5.325-3.1l3.225 1.9c-1.7 2.95-4.9 4.95-8.55 4.95zM28.75 15.5h-0.8l-0.225 1h1.025v1.25h-1.25l-0.3 1.5h-1.225l0.3-1.5h-0.95l-0.3 1.5h-1.2l0.3-1.5h-0.625v-1.25h0.875l0.225-1h-1.1v-1.25h1.325l0.3-1.5h1.225l-0.3 1.5h0.95l0.3-1.5h1.2l-0.3 1.5h0.55v1.25zM25.575 16.5h0.95l0.225-1h-0.95z"></path>
</symbol>
<symbol id="icon--azure" viewBox="0 0 32 32">
<path d="M10.996 1.163c0.647 0 1.197 0.416 1.397 0.995l0.003 0.010 8.977 26.599c0.049 0.141 0.078 0.304 0.078 0.473 0 0.816-0.662 1.478-1.478 1.478-0 0-0 0-0.001 0h10.345c0.492-0 0.928-0.242 1.197-0.612l0.003-0.004c0.173-0.239 0.277-0.538 0.277-0.862 0-0.169-0.029-0.332-0.081-0.484l0.003 0.010-8.977-26.599c-0.203-0.59-0.753-1.006-1.4-1.006-0 0-0 0-0 0h0zM10.662 1.283c0 0-0 0-0 0-0.648 0-1.199 0.417-1.399 0.997l-0.003 0.010-8.976 26.598c-0.049 0.141-0.078 0.303-0.078 0.473 0 0.816 0.661 1.477 1.478 1.477 0 0 0 0 0 0h7.223c0.31 0 0.611-0.102 0.863-0.278 0.248-0.18 0.436-0.429 0.536-0.719l0.003-0.010 1.755-5.178-3.353-3.214c-0.062-0.068-0.338-0.569-0.092-1 0.277-0.415 0.739-0.415 0.739-0.415h4.321l2.268-6.536-3.878-11.407c-0.011-0.051-0.229-0.341-0.57-0.57s-0.836-0.227-0.836-0.227zM9.442 20.218c-0 0-0.001 0-0.001 0-0.376 0-0.681 0.305-0.681 0.681 0 0.197 0.083 0.374 0.217 0.498l0 0 9.457 8.828c0.275 0.258 0.625 0.408 1.002 0.408 0 0 0.32 0.017 0.514-0.008 0.454-0.068 0.881-0.442 1.023-0.598 0.364-0.485 0.198-1.238 0.198-1.238l-2.863-8.57z"></path>
</symbol>
<symbol id="icon--angular" viewBox="0 0 32 32">
<path d="M13.216 16h5.82l-3.094-6.469zM15.953 0.257l-14.814 5.213 2.341 19.409 12.489 6.864 12.553-6.957 2.34-19.409-14.909-5.121zM12.011 18.75l-1.816 4.544-3.395 0.014 9.152-20.27-0.018-0.038h-0.016l0-0.033 0.016 0.033h0.035l0.031-0.069v0.069h-0.031l-0.017 0.038 9.547 20.354-3.268-0.072-2.011-4.645-4.293 0.020z"></path>
</symbol>
</defs>
</svg>
