<svg aria-hidden="true" style="position:absolute;width:0;height:0;overflow:hidden" xmlns="http://www.w3.org/2000/svg">
  <defs>
    <symbol id="icon--less" viewBox="0 0 32 32">
      <path d="M30.575 14.659a2.896 2.896 0 0 1-.238-1.071c-.038-.89-.006-1.784-.046-2.674-.036-.797-.32-1.516-1.086-1.927-.674-.362-1.455-.398-2.205-.406v1.423c.25.008.189.016.25.02 1.007.05 1.345.369 1.358 1.368.009.743.003 1.486.015 2.229.015.901.149 1.761.974 2.331.014.01.013.046.021.087-.419.298-.752.682-.848 1.206a8.383 8.383 0 0 0-.135 1.275v.013c-.024.779.001 1.561-.021 2.34-.017.61-.307.897-.901 1.033-.224.052-.461.07-.711.102v1.419c.5-.03.754-.05 1.097-.087 1.289-.14 2.015-.81 2.163-2.061.047-.392.041-.791.05-1.188.017-.742.008-1.488.075-2.226.068-.753.615-1.169 1.365-1.127V15.25c-.5.089-.961-.127-1.175-.591zM7.079 17.692C7.079 14.805 7 11.918 7 9.03v-.454c-.75 0-1.556-.007-2.348.004a7.33 7.33 0 0 0-.923.075c-1.219.166-1.807.738-2.023 1.953-.063.351-.05.715-.055 1.073-.01.681.01 1.363-.001 2.045-.014.858-.418 1.523-1.293 1.573-.031.002.143.037-.107.059v1.326c1 .157 1.318.561 1.385 1.49.01.148.013.297.015.446.008.83-.001 1.661.036 2.49.035.773.207 1.464.938 1.87.683.379 1.626.41 2.126.43v-1.416c0-.012-.053-.023-.101-.026-1.085-.066-1.329-.361-1.336-1.446-.004-.719.026-1.438.015-2.156-.014-.903-.147-1.759-.964-2.331-.013-.009 0-.046-.004-.096.55-.348.842-.879.921-1.524.044-.355.059-.716.065-1.075.013-.743-.001-1.487.019-2.23.014-.522.348-.902.773-.988.403-.081.612-.079 1.362-.117v.514c0 2.578-.092 5.155-.078 7.732.005.883.103 1.753 1.049 2.134.514.207 1.066.271 1.657.41.099-.578.131-1.058.212-1.532-1.089-.313-1.261-.474-1.261-1.573zm6.668-4.973c-1.835-.877-4.062-.11-4.916 1.73-.643 1.386-.62 2.812-.054 4.218a3.028 3.028 0 0 0 1.618 1.668c1.476.655 2.97.496 4.458.036.08-.025.183-.18.173-.262-.051-.415-.135-.826-.21-1.255-.354.089-.65.18-.953.237-.799.15-1.6.15-2.378-.159-.768-.305-1.284-1.183-1.155-1.933h5.218c.064-.75.039-1.781-.281-2.634-.285-.762-.777-1.292-1.52-1.647zm-.011 3.031h-3.429c.002-1 .816-1.898 1.884-1.877.938.018 1.587.877 1.545 1.877zm14.027 3.07c.123-1.264-.259-1.974-1.384-2.523-.399-.195-.823-.339-1.229-.52a8.089 8.089 0 0 1-.895-.443c-.277-.166-.393-.442-.352-.765a.655.655 0 0 1 .542-.59c.359-.073.736-.136 1.097-.106.511.042 1.014.172 1.541.269l.333-1.454c-.713-.108-1.377-.249-2.049-.302a3.94 3.94 0 0 0-2.157.418c-1.444.744-1.471 3.029-.143 3.779.396.224.821.399 1.233.595.434.207.884.387 1.3.626.316.182.428.499.344.869-.078.344-.338.497-.644.526-.465.044-.942.087-1.402.032-.554-.066-1.097-.234-1.665-.363l-.29 1.448c1.333.5 2.652.582 3.985.287 1.115-.247 1.75-.899 1.836-1.782zm-7.104-2.363c-.49-.26-1.017-.449-1.522-.681-.314-.144-.646-.268-.922-.468-.532-.383-.433-1.118.186-1.315a3.055 3.055 0 0 1 1.13-.12c.509.038 1.01.17 1.541.266l.314-1.386c-.269-.073-.513-.153-.763-.206-.993-.209-1.991-.29-2.968.054-.84.296-1.423.848-1.538 1.777-.129 1.038.215 1.857 1.174 2.351.384.198.795.341 1.187.524s.79.357 1.154.586c.278.175.387.471.309.814-.078.34-.325.511-.633.542-.465.048-.942.092-1.403.038-.556-.065-1.101-.234-1.678-.364-.085.403-.185.809-.248 1.221-.014.09.086.262.17.291 1.346.466 2.716.534 4.085.13.817-.241 1.389-.763 1.505-1.656.131-1.014-.111-1.886-1.079-2.399z"/>
    </symbol>
    <symbol id="icon--bash" viewBox="0 0 32 32">
      <path d="m27.253 7.16-9.433-5.6a3.553 3.553 0 0 0-3.64.002l-9.435 5.6a3.762 3.762 0 0 0-1.82 3.24v11.2c0 1.337.692 2.572 1.82 3.24l9.432 5.6c.563.335 1.19.5 1.82.5a3.58 3.58 0 0 0 1.82-.5l9.435-5.6c1.125-.668 1.82-1.905 1.82-3.24V10.399c0-1.335-.692-2.572-1.82-3.24zm-7.305 17.488.015.805a.303.303 0 0 1-.137.247l-.477.275c-.075.038-.14-.008-.14-.105l-.008-.793c-.407.17-.823.21-1.085.105-.05-.02-.073-.093-.052-.177l.172-.727a.305.305 0 0 1 .085-.15.157.157 0 0 1 .045-.032.091.091 0 0 1 .078-.008c.285.095.648.05.997-.125.445-.225.742-.68.738-1.13-.005-.41-.225-.578-.762-.582-.685.003-1.325-.133-1.335-1.143-.008-.83.422-1.695 1.108-2.24l-.008-.813c0-.1.06-.21.137-.25l.462-.295c.075-.038.14.01.14.108l.008.813c.34-.135.635-.172.902-.11.058.015.085.095.06.188l-.18.72a.324.324 0 0 1-.082.145.224.224 0 0 1-.046.035h-.001c-.025.012-.047.015-.07.012-.122-.027-.413-.09-.87.14-.48.242-.648.66-.645.97.005.37.192.483.848.492.872.015 1.247.395 1.258 1.273.012.86-.448 1.788-1.152 2.352zm4.944-1.353c0 .075-.01.145-.073.18l-2.385 1.45c-.063.038-.113.005-.113-.07v-.615c0-.075.045-.115.108-.152l2.35-1.405c.063-.038.113-.005.113.07v.543zm1.64-13.772-8.925 5.512c-1.113.65-1.933 1.38-1.935 2.723v10.998c0 .802.325 1.323.822 1.475a3.05 3.05 0 0 1-.495.047 2.929 2.929 0 0 1-1.49-.41l-9.432-5.6c-.923-.547-1.495-1.57-1.495-2.668V10.4c0-1.098.572-2.12 1.495-2.668l9.435-5.6c.453-.268.967-.41 1.49-.41s1.038.143 1.49.41l9.435 5.6a3.09 3.09 0 0 1 1.45 2.158c-.317-.668-1.023-.848-1.845-.367z"/>
    </symbol>
    <symbol id="icon--ucommerce" viewBox="0 0 32 32">
      <path d="M20.416 6.597c-.068-.051-.17-.051-.221.017l-.577.577c-.034.034-.051.085-.051.136s.034.085.068.119c2.514 2.005 2.939 5.673.934 8.204s-5.673 2.939-8.204.934-2.939-5.673-.934-8.204c.271-.34.594-.663.934-.934a.161.161 0 0 0 .034-.221l-.017-.017-.577-.594c-.051-.068-.153-.068-.221-.017-2.989 2.446-3.414 6.845-.985 9.818s6.845 3.414 9.818.985 3.414-6.845.985-9.818a7.833 7.833 0 0 0-.985-.985z"/>
      <path d="M16 19.064c-3.889 0-7.066-3.159-7.066-7.049a7.08 7.08 0 0 1 2.582-5.469c.085-.085.238-.068.323.017l.594.578a.259.259 0 0 1 0 .34s-.017.017-.034.017c-2.497 1.987-2.905 5.588-.917 8.085s5.588 2.905 8.085.917 2.905-5.588.917-8.085a5.763 5.763 0 0 0-.917-.917.242.242 0 0 1-.034-.34c0-.017.017-.017.017-.034l.577-.594c.085-.085.221-.085.323-.017a7.042 7.042 0 0 1 1.002 9.919A6.962 6.962 0 0 1 16 19.065zM11.686 6.648c-.017 0-.034.017-.051.017-2.955 2.412-3.397 6.76-.985 9.699s6.76 3.397 9.715.985 3.397-6.76.985-9.715a7.833 7.833 0 0 0-.985-.985.082.082 0 0 0-.119 0l-.577.594c-.017.017-.034.034-.034.068s.017.034.034.068c2.565 2.038 2.989 5.758.951 8.306s-5.741 2.989-8.306.951-2.989-5.758-.951-8.306c.271-.356.594-.679.951-.951.017-.017.034-.034.034-.068s-.017-.051-.034-.068l-.577-.577c-.017 0-.034-.017-.051-.017z"/>
      <path d="M16 16.33a4.34 4.34 0 0 0 2.973-1.189.164.164 0 0 0 0-.238l-.577-.577c-.068-.068-.153-.068-.221 0a3.174 3.174 0 0 1-4.501-.136 3.189 3.189 0 0 1 .119-4.501c1.223-1.155 3.143-1.155 4.348 0 .068.068.153.068.221 0l.577-.594a.164.164 0 0 0 0-.238c-1.733-1.63-4.467-1.563-6.098.17s-1.563 4.467.17 6.115A4.372 4.372 0 0 0 16 16.331z"/>
      <path d="M16 16.415a4.382 4.382 0 0 1-4.416-4.399A4.389 4.389 0 0 1 15.967 7.6c1.138 0 2.225.442 3.057 1.206a.259.259 0 0 1 0 .34l-.577.577c-.085.085-.238.085-.34 0a3.107 3.107 0 0 0-4.264 4.519 3.1 3.1 0 0 0 4.246 0 .242.242 0 0 1 .34.017l.577.577a.259.259 0 0 1 0 .34A4.256 4.256 0 0 1 16 16.416zm0-8.663c-2.344-.017-4.264 1.885-4.28 4.229 0 2.344 1.885 4.264 4.229 4.28a4.278 4.278 0 0 0 2.955-1.172.082.082 0 0 0 0-.119l-.577-.577a.082.082 0 0 0-.119 0c-1.308 1.24-3.38 1.172-4.604-.153s-1.172-3.38.153-4.604c1.257-1.189 3.227-1.189 4.467 0a.082.082 0 0 0 .119 0l.577-.577a.082.082 0 0 0 0-.119 4.209 4.209 0 0 0-2.921-1.189zM2.786 22.172h-.714c-.034 0-.051.034-.051.051v1.766a.817.817 0 0 1-.17.561.516.516 0 0 1-.425.204.503.503 0 0 1-.442-.204.949.949 0 0 1-.17-.561V22.24c0-.034-.034-.051-.051-.051H.049c-.034 0-.051.034-.051.051v1.784c0 .475.136.849.408 1.104a1.535 1.535 0 0 0 2.055 0c.271-.255.408-.629.408-1.104V22.24c-.017-.051-.034-.068-.085-.068zM5.079 22.105c-.459-.017-.9.17-1.223.493-.34.323-.51.765-.51 1.223-.017.459.17.9.493 1.223.34.323.798.493 1.257.493.51 0 .951-.221 1.325-.629a.052.052 0 0 0 0-.068l-.459-.475c-.017-.017-.034-.017-.051-.017s-.034.017-.051.034c-.204.255-.493.408-.815.39a.749.749 0 0 1-.611-.255.994.994 0 0 1-.255-.679.818.818 0 0 1 .271-.663.912.912 0 0 1 .646-.255.98.98 0 0 1 .798.408c.017.017.034.017.051.017s.034-.017.051-.017l.442-.51a.052.052 0 0 0 0-.068 1.594 1.594 0 0 0-1.359-.645zM8.476 22.105c-.459-.017-.9.17-1.223.493s-.51.765-.51 1.223c-.017.459.17.9.51 1.223a1.81 1.81 0 0 0 2.463 0c.323-.323.51-.765.51-1.223.017-.459-.17-.9-.51-1.223s-.781-.51-1.24-.493zm.883 1.699a.956.956 0 0 1-.255.696.857.857 0 0 1-1.206.068L7.83 24.5c-.34-.39-.34-.985 0-1.376a.852.852 0 0 1 1.189-.068c.034.017.051.051.068.068a.935.935 0 0 1 .271.679zM14.37 22.172h-.951c-.017 0-.051.017-.051.034l-.781 1.648-.781-1.665c-.017-.017-.034-.034-.051-.034h-.969c-.034 0-.051.034-.051.051v3.193c0 .034.034.051.051.051h.714c.034 0 .051-.034.051-.051v-1.766l.747 1.529c.017.017.034.034.051.034h.425c.017 0 .034-.017.051-.034l.747-1.529v1.766c0 .034.034.051.051.051h.714c.034 0 .051-.034.051-.051V22.24c.051-.034.017-.068-.017-.068zM18.803 22.172h-.951c-.017 0-.034.017-.051.034l-.781 1.648-.781-1.648c-.017-.017-.034-.034-.051-.034h-.969c-.034 0-.051.034-.051.051v3.193c0 .034.034.051.051.051h.714c.034 0 .051-.034.051-.051V23.65l.747 1.529c.017.017.034.034.051.034h.425c.017 0 .034-.017.051-.034l.747-1.529v1.766c0 .034.034.051.051.051h.714c.034 0 .051-.034.051-.051V22.24c.051-.051.017-.068-.017-.068zM21.928 24.737h-1.58v-.544h1.376c.034 0 .051-.034.051-.051v-.611c0-.034-.034-.051-.051-.051h-1.376v-.544h1.529c.034 0 .051-.034.051-.051v-.629c0-.034-.034-.051-.051-.051h-2.293c-.034 0-.051.034-.051.051v3.193c0 .034.034.051.051.051h2.361c.034 0 .051-.034.051-.051v-.645a.073.073 0 0 0-.068-.068zM24.782 24.313c.374-.17.577-.51.577-1.019 0-.39-.119-.663-.34-.849s-.594-.255-1.104-.255h-1.206c-.034 0-.051.034-.051.051v3.193c0 .034.034.051.051.051h.714c.034 0 .051-.034.051-.051v-.969h.408l.696 1.002c.017.017.034.034.051.034h.884c.034 0 .051-.034.051-.051s0-.034-.017-.034l-.765-1.104zm-.272-1.019c.017.119-.034.238-.119.34-.068.068-.238.102-.459.102h-.459v-.832h.475c.221 0 .357.034.442.085.102.051.119.153.119.306zM27.601 22.105c-.459-.017-.9.17-1.223.493-.34.323-.51.765-.51 1.223-.017.459.17.9.493 1.223.34.323.798.493 1.257.493.51 0 .951-.221 1.325-.629a.052.052 0 0 0 0-.068l-.459-.459c-.017-.017-.034-.017-.051-.017s-.034.017-.051.017c-.204.255-.493.408-.815.39a.749.749 0 0 1-.611-.255.953.953 0 0 1-.255-.663.818.818 0 0 1 .271-.663.912.912 0 0 1 .645-.255.98.98 0 0 1 .798.408c.017.017.034.017.051.017s.034-.017.051-.017l.442-.51a.052.052 0 0 0 0-.068 1.593 1.593 0 0 0-1.359-.663zM31.932 24.737h-1.58v-.544h1.376c.034 0 .051-.034.051-.051v-.611c0-.034-.034-.051-.051-.051h-1.376v-.544h1.529c.034 0 .051-.034.051-.051v-.629c0-.034-.034-.051-.051-.051h-2.293c-.034 0-.051.034-.051.051v3.193c0 .034.034.051.051.051h2.361c.034 0 .051-.034.051-.051v-.645c-.017-.034-.051-.068-.068-.068z"/>
    </symbol>
    <symbol id="icon--umbraco" viewBox="0 0 32 32">
      <path d="M3.861 12.455C3.868 5.677 9.371.19 16.15.198s12.265 5.51 12.255 12.289-5.5 12.257-12.273 12.257C9.35 24.74 3.856 19.24 3.859 12.458zm12.024 4.202a12.104 12.104 0 0 1-2.916-.269l.079.014a2.18 2.18 0 0 1-1.544-1.232l-.006-.014q-.416-.96-.403-2.961c.006-.741.053-1.465.14-2.177l-.009.091q.12-1.011.239-1.667l.084-.434v-.039a.252.252 0 0 0-.204-.247l-1.584-.247h-.034a.251.251 0 0 0-.241.19v.002a5.646 5.646 0 0 0-.09.418c-.091.466-.174.921-.267 1.584-.091.63-.154 1.38-.178 2.141v.031a11.069 11.069 0 0 0 .002 1.556l-.002-.035q.056 2.013.691 3.219t2.153 1.732q1.517.529 4.228.518h.227q2.714.011 4.228-.518t2.153-1.732q.636-1.205.692-3.219a11.069 11.069 0 0 0-.002-1.556l.002.035a20.976 20.976 0 0 0-.191-2.28l.012.109a30.943 30.943 0 0 0-.267-1.584c-.05-.241-.063-.316-.091-.418a.249.249 0 0 0-.242-.192h-.041l-1.583.247a.248.248 0 0 0-.208.245V8.009v-.001l.083.434q.12.658.242 1.667c.077.62.124 1.345.129 2.078v.008q.02 1.997-.403 2.958a2.178 2.178 0 0 1-1.527 1.246l-.014.002a11.685 11.685 0 0 1-2.852.255h.018zm10.393 13.332c0-1.061.302-1.805 1.531-1.805s1.531.745 1.531 1.805-.302 1.805-1.529 1.805-1.532-.743-1.532-1.805zm2.281 0c0-.738-.095-1.158-.75-1.158s-.752.421-.752 1.158.097 1.158.752 1.158.75-.422.75-1.158zM5.076 31.66c.018.03.05.05.087.05h.288a.101.101 0 0 0 .101-.101v-3.241a.101.101 0 0 0-.101-.101H4.88a.101.101 0 0 0-.101.101v2.572a1.544 1.544 0 0 1-.767.202h-.033.002c-.365 0-.543-.158-.543-.51v-2.263a.101.101 0 0 0-.101-.101h-.575a.101.101 0 0 0-.101.101v2.33c0 .662.31 1.095 1.185 1.095a1.97 1.97 0 0 0 1.122-.362l-.006.004.101.228zm6.431-2.382c0-.654-.324-1.096-1.141-1.096a1.97 1.97 0 0 0-1.11.346l.006-.004c-.144-.213-.421-.342-.883-.342a1.778 1.778 0 0 0-1.043.361l.004-.004-.101-.228a.101.101 0 0 0-.087-.05h-.29a.101.101 0 0 0-.101.101v3.241c0 .055.045.101.101.101h.571a.101.101 0 0 0 .101-.101v-2.567c.205-.126.454-.201.721-.201h.002c.31 0 .489.114.489.442v2.332c0 .055.045.101.101.101h.571a.101.101 0 0 0 .101-.101v-2.572c.201-.126.446-.201.707-.201h.018-.001c.302 0 .489.114.489.442v2.33c0 .055.045.101.101.101h.571a.101.101 0 0 0 .101-.101zm1.763 2.159c.299.224.676.358 1.085.358h.036-.002c1.007 0 1.378-.675 1.378-1.805s-.375-1.807-1.378-1.807a1.748 1.748 0 0 0-.931.273l.007-.004V27.408a.101.101 0 0 0-.101-.101h-.575a.101.101 0 0 0-.101.101v4.202c0 .055.045.101.101.101h.288c.037 0 .069-.02.087-.05zm.937-.297c-.274 0-.53-.075-.75-.205l.006.004v-1.902c.213-.127.47-.201.743-.201.675 0 .78.517.78 1.151s-.101 1.151-.778 1.151zm4.41-2.279a1.839 1.839 0 0 0-.255-.017h-.014a1.682 1.682 0 0 0-.891.21l.008-.004v2.558a.101.101 0 0 1-.101.101h-.571a.101.101 0 0 1-.101-.101v-3.241c0-.055.045-.101.101-.101h.288c.037 0 .069.02.087.05l.101.228c.291-.223.66-.358 1.061-.358h.03-.002c.095 0 .189.008.28.024l-.01-.002c.05 0 .093.085.093.14v.413a.101.101 0 0 1-.101.101h-.008zm1.977 1.259c-.342.041-.545.171-.545.531 0 .262.114.51.53.51h.012c.272 0 .524-.085.731-.231l-.004.002v-.891zm.913 1.317a1.663 1.663 0 0 1-1.034.358h-.006c-.889 0-1.185-.551-1.185-1.103 0-.745.482-1.062 1.262-1.123l.772-.062v-.172c0-.352-.166-.489-.675-.489-.337 0-.66.058-.961.164l.02-.006-.016.001c-.006 0-.011 0-.016-.002a.101.101 0 0 1-.101-.101v-.458c0-.043.027-.08.065-.095a3.234 3.234 0 0 1 1.051-.172h.014c1.13 0 1.391.496 1.391 1.227v2.199a.101.101 0 0 1-.101.101h-.288a.101.101 0 0 1-.087-.05zm3.927-.436L25.45 31c.006 0 .01 0 .016.002.055 0 .101.045.101.101v.459a.102.102 0 0 1-.062.093 2.437 2.437 0 0 1-.837.146h-.053.002c-1.22 0-1.596-.731-1.596-1.805s.373-1.805 1.596-1.805h.065c.292 0 .573.051.833.146l-.017-.006a.1.1 0 0 1 .064.093v.458a.101.101 0 0 1-.101.101h-.033a2.33 2.33 0 0 0-.711-.109h-.061.003c-.668 0-.863.456-.863 1.124s.194 1.123.863 1.123h.044c.259 0 .508-.042.741-.119l-.016.004z"/>
    </symbol>
    <symbol id="icon--yarn" viewBox="0 0 32 32">
      <path d="M24.81 20.177c-1.085.012-2.035.573-2.837 1.073-1.5.927-2.25.867-2.25.867l-.025-.043c-.102-.168.48-1.67-.172-3.46-.705-1.957-1.825-2.43-1.735-2.58.383-.648 1.34-1.675 1.723-3.59.227-1.16.168-3.07-.348-4.07-.095-.185-.945.31-.945.31s-.795-1.772-1.018-1.915c-.718-.46-1.5 1.903-1.5 1.903a3.492 3.492 0 0 0-2.925 1.122l-.002.003c-.264.254-.586.45-.945.563l-.017.005c-.102.035-.227.03-.537.867-.475 1.268.81 2.703.81 2.703s-1.533 1.082-2.1 2.43a6.093 6.093 0 0 0-.464 2.352c0 .2.009.398.028.593l-.002-.025s-1.09.945-1.16 1.92a3.203 3.203 0 0 0 .451 1.972l-.008-.014a.486.486 0 0 0 .66.226l-.003.001s-.725.845-.047 1.203c.617.323 1.658.5 2.207-.047.4-.4.48-1.293.627-1.657.035-.085.155.142.27.25.101.088.212.171.329.244l.011.006s-.975.42-.575 1.378c.133.317.605.52 1.377.515.287 0 3.44-.18 4.28-.383.263-.043.489-.175.651-.364l.001-.001a15.713 15.713 0 0 0 3.937-1.788l-.064.038c1.185-.773 1.67-.983 2.628-1.21.79-.188.738-1.413-.31-1.395z"/>
      <path d="M16 .5C7.44.5.5 7.44.5 16S7.44 31.5 16 31.5c8.56 0 15.5-6.94 15.5-15.5C31.5 7.44 24.56.5 16 .5zm9.325 21.957c-.837.203-1.227.36-2.352 1.09a16.427 16.427 0 0 1-3.771 1.762l-.119.033c-.253.209-.56.363-.895.44l-.015.003c-.953.233-4.22.407-4.477.407h-.06c-1 0-1.568-.31-1.873-.635-.85.425-1.95.25-2.75-.172a1.393 1.393 0 0 1-.748-.966l-.002-.009a1.469 1.469 0 0 1 .002-.525l-.001.009a1.65 1.65 0 0 1-.194-.244l-.004-.006a4.046 4.046 0 0 1-.563-2.532l-.001.017c.072-.933.718-1.765 1.138-2.207a7.121 7.121 0 0 1 .533-2.97l-.017.047a6.759 6.759 0 0 1 1.696-2.243l.009-.007c-.412-.695-.832-1.765-.425-2.855.293-.777.533-1.21 1.06-1.395.242-.071.452-.186.63-.337l-.002.002a4.402 4.402 0 0 1 2.952-1.414l.013-.001c.047-.12.102-.25.162-.365.4-.85.825-1.327 1.323-1.5a1.217 1.217 0 0 1 1.104.128l-.004-.003c.163.107.37.25.975 1.5a1.165 1.165 0 0 1 .72-.023l-.008-.002a.958.958 0 0 1 .595.48l.003.005c.617 1.185.7 3.297.43 4.655a8.448 8.448 0 0 1-1.476 3.351l.016-.023a6.436 6.436 0 0 1 1.429 2.313l.014.045c.234.636.37 1.37.37 2.136 0 .164-.006.327-.018.488l.001-.021c.307-.148.563-.293.808-.452l-.028.017c.765-.473 1.92-1.185 3.297-1.203a1.655 1.655 0 0 1 1.749 1.416l.001.009a1.588 1.588 0 0 1-1.212 1.755l-.011.002z"/>
    </symbol>
    <symbol id="icon--webpack" viewBox="0 0 32 32">
      <path d="M29.323 24.525 16.561 31.75v-5.628l7.94-4.372 4.823 2.775zm.875-.79V8.637l-4.67 2.7v9.703l4.668 2.692zm-27.52.79 12.75 7.22v-5.622l-7.942-4.372zm-.876-.79V8.637l4.67 2.7v9.703zM2.35 7.66 15.44.25v5.44l-8.455 4.65zm27.295 0L16.56.25v5.44l8.455 4.647 4.635-2.678zM15.44 24.843l-7.848-4.317v-8.545l7.848 4.52zm1.12 0 7.848-4.313v-8.55L16.56 16.5zM8.125 11 16 6.665 23.875 11 16 15.54 8.125 11z"/>
    </symbol>
    <symbol id="icon--vue" viewBox="0 0 32 32">
      <path d="m0 2.233 12.463.039 3.575 6.104 3.575-6.104L32 2.233 16.041 29.767zm31.747.16-6.093.005-9.618 16.513L6.423 2.398.235 2.393l15.803 26.973z"/>
    </symbol>
    <symbol id="icon--typescript" viewBox="0 0 32 32">
      <path d="M.5 15.977v15.625h31.25V.352H.5zm25.183-1.25c.776.184 1.442.58 1.953 1.123l.002.002c.281.293.53.621.737.976l.013.024c0 .04-1.35.953-2.172 1.462-.03.02-.15-.11-.282-.308a1.777 1.777 0 0 0-1.464-.882h-.003c-.948-.065-1.558.433-1.552 1.25l-.001.044c0 .198.05.384.139.547l-.003-.006c.207.433.595.69 1.81 1.215 2.238.962 3.195 1.598 3.79 2.5.665 1 .813 2.615.363 3.81-.5 1.3-1.725 2.183-3.457 2.475a9.707 9.707 0 0 1-2.43-.031l.05.006a5.755 5.755 0 0 1-3.172-1.637l-.001-.001c-.288-.317-.848-1.145-.813-1.205a2.27 2.27 0 0 1 .275-.176l.012-.006 1.15-.66.898-.52.188.277c.32.454.714.832 1.168 1.125l.017.01c1 .525 2.365.453 3.04-.155a1.35 1.35 0 0 0 .169-1.734l.003.005c-.25-.348-.75-.64-2.148-1.25-1.613-.695-2.308-1.125-2.942-1.81a4.105 4.105 0 0 1-.85-1.533l-.008-.029a6.296 6.296 0 0 1-.051-2.033l-.004.033c.332-1.558 1.5-2.645 3.205-2.967a7.953 7.953 0 0 1 2.421.072l-.049-.008zm-7.335 1.311v1.28H14.29v11.557h-2.877v-11.56H7.346v-1.25a12.344 12.344 0 0 1 .038-1.334l-.003.044c.015-.02 2.5-.03 5.5-.025h5.453z"/>
    </symbol>
    <symbol id="icon--twitter" viewBox="0 0 32 32">
      <path d="M10.063 31.909c12.076 0 18.68-12.239 18.68-22.851 0-.348 0-.694-.019-1.039C30.009 6.882 31.119 5.474 32 3.861a11.301 11.301 0 0 1-3.77 1.266c1.37-1.005 2.396-2.584 2.885-4.444a11.818 11.818 0 0 1-4.17 1.95c-2.034-2.647-5.267-3.295-7.887-1.58-2.618 1.715-3.97 5.365-3.3 8.904-5.278-.323-10.197-3.374-13.53-8.39C.482 5.235 1.371 9.93 4.255 12.29c-1.037-.043-2.052-.389-2.958-1.008v.102c0 3.818 2.196 7.109 5.255 7.873a5.301 5.301 0 0 1-1.72.281c-.442 0-.871-.053-1.282-.153l.037.008c.859 3.273 3.324 5.518 6.134 5.582-2.326 2.229-5.198 3.438-8.154 3.43-.523 0-1.047-.038-1.567-.111 3.002 2.358 6.495 3.61 10.063 3.605z"/>
    </symbol>
    <symbol id="icon--tailwind" viewBox="0 0 32 32">
      <path d="M16.001 6.401c-4.267 0-6.933 2.132-8 6.399 1.599-2.133 3.467-2.933 5.599-2.399 1.218.303 2.088 1.187 3.052 2.165C18.221 14.158 20.036 16 24.001 16c4.267 0 6.933-2.133 8-6.401-1.6 2.134-3.467 2.934-5.6 2.401-1.218-.304-2.087-1.187-3.052-2.165C21.782 8.243 19.966 6.401 16 6.401zm-8 9.599c-4.266 0-6.933 2.133-8 6.401C1.6 20.267 3.467 19.467 5.6 20c1.218.304 2.088 1.186 3.052 2.165 1.569 1.592 3.384 3.434 7.349 3.434 4.267 0 6.933-2.133 8-6.399-1.6 2.133-3.467 2.933-5.6 2.399-1.218-.303-2.087-1.186-3.052-2.165C13.781 17.842 11.966 16 8.001 16z"/>
    </symbol>
    <symbol id="icon--sass" viewBox="0 0 32 32">
      <path d="M.305 14.039c0 .176.052.292.081.405.189.733.595 1.363 1.077 1.936.686.818 1.527 1.477 2.389 2.096.747.537 1.509 1.062 2.259 1.595.129.091.25.197.39.309-.12.065-.22.122-.324.175-.99.502-1.942 1.065-2.82 1.747-.529.411-1.04.848-1.402 1.419-.581.918-.787 1.896-.354 2.94.127.305.32.569.592.763a.882.882 0 0 0 .29.15c.264.062.534.103.802.152h.758a4.724 4.724 0 0 0 2.292-.838c1.078-.744 1.804-1.741 2.116-3.022.227-.93.236-1.862-.031-2.788a2.734 2.734 0 0 0-.096-.273l.007.02c-.033-.083-.071-.164-.116-.268l1.719-.988.026.022c-.031.102-.065.204-.093.308-.204.746-.34 1.505-.291 2.279.052.825.282 1.597.765 2.287.39.558 1.321.578 1.736.019.147-.199.29-.407.397-.628.28-.579.54-1.168.807-1.753l.047-.107c-.019.277-.042.52-.052.764-.016.38.006.758.136 1.12.111.309.3.541.655.581.242.028.436-.083.614-.224.274-.218.499-.484.666-.786l.007-.013c.475-.873.963-1.74 1.394-2.635.466-.968.873-1.964 1.306-2.948l.072-.174c.102.402.174.795.305 1.168.152.432.341.854.547 1.264.097.194.086.32-.049.482-.564.68-1.118 1.368-1.673 2.056a4.542 4.542 0 0 0-.347.472.91.91 0 0 0-.119.336l-.001.005a.435.435 0 0 0 .343.493h.003a2.38 2.38 0 0 0 .685.048h-.008a3.972 3.972 0 0 0 2.099-.789c.805-.596 1.064-1.41.869-2.375-.053-.262-.146-.516-.237-.768-.041-.114-.044-.194.031-.299.644-.919 1.194-1.895 1.705-2.892a.608.608 0 0 1 .076-.12c.166.863.415 1.694.862 2.448-.228.22-.454.419-.658.639-.45.483-.84 1.009-1.043 1.649-.087.276-.155.556-.116.851.061.458.436.755.886.651.963-.223 1.795-.677 2.403-1.481.409-.541.446-1.145.275-1.778-.047-.172-.103-.341-.163-.538.238-.074.47-.162.709-.217 1.245-.284 2.476-.235 3.675.215.7.262 1.266.702 1.602 1.393.41.845.183 1.646-.613 2.18-.074.05-.159.089-.221.151a.217.217 0 0 0-.053.142l.002.027v-.001c.005.031.087.069.133.069.262-.002.474-.139.678-.28.511-.353.883-.829.963-1.454l.016-.047-.019-.407c-.008-.023.006-.047.004-.064-.108-.911-.595-1.618-1.303-2.172-.82-.641-1.788-.905-2.812-.947a6.337 6.337 0 0 0-2.485.39l.044-.014c-.224.081-.447.177-.672.268-.03-.055-.063-.107-.09-.162-.232-.474-.512-.927-.574-1.471-.044-.386-.098-.771-.006-1.153.088-.367.203-.728.311-1.091.056-.187.017-.291-.162-.375a.723.723 0 0 0-.192-.064l-.004-.001a3.04 3.04 0 0 0-1.293.096c-.15.044-.259.128-.292.294-.019.095-.058.187-.085.28-.111.391-.189.789-.368 1.161-.448.934-.96 1.832-1.485 2.724-.057.096-.116.191-.188.308-.184-.385-.38-.73-.44-1.136-.067-.458-.12-.915-.006-1.37.085-.339.195-.672.297-1.006.048-.159.026-.242-.118-.326a.696.696 0 0 0-.237-.092 2.895 2.895 0 0 0-1.359.116l.021-.006c-.136.044-.207.132-.248.272-.122.413-.226.836-.397 1.229a429.556 429.556 0 0 1-2.12 4.753c-.149.33-.323.649-.491.971-.043.081-.104.153-.158.23-.043-.05-.059-.085-.059-.119.001-.203-.023-.413.016-.609.172-.881.309-1.479.458-2.072l-.063.297c.117-.486.254-.968.384-1.452.044-.162.044-.313-.072-.449-.195-.228-.603-.278-.845-.102l-.107.061.021-.172c.051-.37.061-.738-.04-1.102-.127-.454-.45-.715-.921-.701a1.98 1.98 0 0 0-.653.124c-.855.335-1.512.928-2.072 1.642a.669.669 0 0 1-.186.162l-.003.002c-.723.401-1.449.797-2.174 1.195l-.807.442c-.216-.206-.413-.421-.636-.602-.682-.556-1.375-1.098-2.061-1.648-.609-.487-1.198-.995-1.649-1.64-.336-.48-.552-1.005-.572-1.599-.026-.756.188-1.447.573-2.091.493-.823 1.164-1.483 1.903-2.082.781-.633 1.626-1.169 2.502-1.66 1.225-.686 2.485-1.293 3.837-1.694 1.386-.411 2.791-.646 4.241-.482.57.064 1.123.195 1.632.474.389.213.709.492.857.929.146.43.142.865.041 1.301-.206.883-.69 1.612-1.299 2.263-.998 1.067-2.216 1.793-3.588 2.273a9.557 9.557 0 0 1-2.404.518l-.037.003c-.682.057-1.35-.003-1.996-.241a2.597 2.597 0 0 1-1.1-.747c-.053-.063-.122-.13-.222-.072-.098.057-.115.15-.082.245.055.156.105.319.191.46.214.351.527.606.871.825.661.42 1.399.562 2.165.594 1.162.05 2.296-.123 3.413-.435 1.596-.445 2.983-1.231 4.096-2.471.927-1.033 1.588-2.198 1.73-3.605.069-.687-.005-1.359-.326-1.986-.349-.679-.903-1.183-1.566-1.531-.965-.506-2.008-.801-3.083-.801h-1.078c-1.303 0-2.562.373-3.786.819-.927.337-1.835.735-2.717 1.176-1.921.96-3.709 2.117-5.179 3.708-.732.793-1.352 1.668-1.708 2.697a8.772 8.772 0 0 0-.263.867l-.015.07zm6.981 8.551c-.083 1.115-.588 2.018-1.414 2.75-.465.412-.997.704-1.618.808-.225.037-.455.046-.673-.047-.311-.133-.381-.409-.387-.703-.009-.469.155-.893.38-1.297.294-.526.725-.927 1.185-1.302.725-.59 1.511-1.09 2.317-1.561l.061-.025c.125.46.184.914.149 1.377zm6.29-4.845a8.45 8.45 0 0 1-.236 1.057c-.36 1.194-.821 2.352-1.321 3.493-.092.211-.226.404-.343.604a.44.44 0 0 1-.07.083c-.145.143-.281.135-.354-.052a3.93 3.93 0 0 1-.182-.679c-.03-.154-.023-.316-.033-.474.01-1.123.352-2.145.934-3.095.24-.392.501-.765.899-1.014a1.52 1.52 0 0 1 .388-.174l.011-.003c.213-.06.343.038.308.252zm4.291 5.467 1.542-1.801c.064.669-1.073 2.004-1.542 1.801zM22.793 22c-.109.063-.228.108-.34.165-.102.053-.136 0-.139-.088v-.015c0-.059.009-.116.024-.17l-.001.004a3.874 3.874 0 0 1 1.162-1.872l.04-.02a1.65 1.65 0 0 1-.747 1.995z"/>
    </symbol>
    <symbol id="icon--nuget" viewBox="0 0 32 32">
      <path d="M2.328.627a2.674 2.674 0 0 0-1.99 1.336 2.514 2.514 0 0 0-.329 1.279c0 .447.074.779.266 1.172.355.734 1.029 1.252 1.867 1.433.215.046.738.05.962.008A2.656 2.656 0 0 0 5.146 4.1c.106-.305.127-.456.127-.849 0-.383-.011-.471-.104-.773A2.64 2.64 0 0 0 3.318.697a2.946 2.946 0 0 0-.989-.068zm11.797 5.756a8.155 8.155 0 0 0-7.224 6.149c-.106.422-.145.654-.216 1.258-.025.216-.038 9.572-.013 9.992.037.653.131 1.211.304 1.813a8.167 8.167 0 0 0 5.592 5.578 8.89 8.89 0 0 0 1.455.276c.252.026.518.028 5.18.028 5.209 0 5.017.003 5.563-.072a8.106 8.106 0 0 0 3.761-1.552l-.021.015c.437-.326.98-.833 1.31-1.219.315-.372.675-.881.911-1.297a8.257 8.257 0 0 0 .967-2.813c.083-.568.077-.206.083-5.445.005-3.414.002-4.928-.011-5.11-.117-1.756-.752-3.344-1.887-4.718-.191-.232-.77-.811-1.003-1.003-1.164-.964-2.467-1.563-3.922-1.8-.62-.101-.192-.093-5.64-.098-3.985-.001-4.992.002-5.188.018zm-.719 3.724a3.319 3.319 0 0 1 2.57 2.193 3.303 3.303 0 0 1-.018 2.192c-.17.473-.5.973-.857 1.297-.639.583-1.4.883-2.242.883-.908 0-1.708-.33-2.346-.967a3.257 3.257 0 0 1-.951-1.947 4.33 4.33 0 0 1 .008-.836c.206-1.502 1.393-2.658 2.914-2.844.198-.023.717-.008.922.028zm10.641 8.151c1.174.151 2.2.645 3.045 1.469a5.132 5.132 0 0 1 1.337 2.141c.177.533.242.934.253 1.531a4.9 4.9 0 0 1-.192 1.567 5.326 5.326 0 0 1-2.115 2.922c-1.313.891-2.912 1.143-4.459.703a5.576 5.576 0 0 1-1.776-.91 5.293 5.293 0 0 1 .469-8.665 5.32 5.32 0 0 1 2.359-.783 7.81 7.81 0 0 1 1.078.023z"/>
    </symbol>
    <symbol id="icon--npm" viewBox="0 0 32 32">
      <path d="M.5 9.625h31v10.928H16v1.823H9.11v-1.823H.5zm1.723 9.108h3.445v-5.465h1.723v5.465h1.723v-7.285h-6.89zm8.609-7.286v9.105h3.445v-1.82h3.445v-7.285zm3.445 1.823H16v3.64h-1.723zm5.168-1.823v7.285h3.445v-5.465h1.723v5.465h1.723v-5.465h1.723v5.465h1.723v-7.285z"/>
    </symbol>
    <symbol id="icon--sql" viewBox="0 0 32 32">
      <path d="M13.813 1.038c-.082.028-.525.17-.99.323-2.5.818-4.27 1.765-4.71 2.515-.168.287-.2.52-.1.752.11.263.313.46.867.853.26.183.703.565.99.853 1.375 1.373 2.043 3.055 1.967 4.957-.085 2.14-1.088 4.28-3.008 6.422-.67.747-1.357 1.37-2.678 2.428-1.1.88-1.697 1.45-2.105 2.003-1.248 1.7-.915 3.215.99 4.48 1.68 1.117 4.64 2.047 8.127 2.553 1.17.17 2.492.277 2.81.23l.222-.032.35-.63c1.77-3.188 2.665-6.192 2.773-9.303.047-1.387-.128-3.03-.425-3.99-.055-.172-.095-.32-.087-.325.005-.005.5-.152 1.1-.332 3.152-.94 6.203-1.68 8.723-2.117.49-.085.91-.172.933-.195.135-.133-.258-.745-.895-1.402-2.358-2.432-6.523-4.285-11.41-5.072-.942-.152-1.058-.207-1.408-.67-.555-.735-1.078-1.992-1.79-4.293-.023-.07-.045-.07-.248-.005zm.324.865c.275.748.443 1.335.443 1.543v.163l-.232-.027c-1.26-.145-3.27-.458-3.697-.573-.11-.03-.172-.072-.152-.105.033-.053.46-.257 1.73-.835 1.185-.538 1.635-.738 1.67-.74.015 0 .123.258.24.575zM11.473 3.48c1.537.323 2.658.525 2.905.525.24 0 .213.02-.918.71-.873.53-.973.58-1.193.58h-.24l-.645-.655c-.783-.792-1.313-1.373-1.313-1.438 0-.027.015-.035.037-.022.02.01.637.147 1.365.3zm-1.135.727c.377.44.67.81.655.827-.033.032-1.11-.235-1.77-.438-.575-.178-.645-.237-.492-.433.1-.13.842-.75.898-.752.015-.002.332.353.71.795zm4.904.913c.15.357.265.647.26.652-.008.005-2.027-.308-2.205-.343-.037-.008.305-.24.765-.52s.852-.492.873-.47c.02.018.158.322.307.68zm-4.404.678c.04.04.522 1.59.5 1.61-.008.008-.238-.258-.51-.595-.275-.338-.688-.81-.925-1.058l-.428-.447.668.23c.365.128.68.245.695.26zm1.93.207c.838.12 1.533.228 1.545.24.01.013-.495.405-1.125.875-.63.468-1.15.845-1.158.838s-.07-.202-.14-.435c-.07-.232-.25-.715-.398-1.077s-.262-.657-.258-.657c.005 0 .695.1 1.533.218zm2.105.67c.185.433.258.848.287 1.675.015.445.018.807.002.807s-.28-.092-.588-.203c-.615-.223-1.82-.62-1.963-.648-.063-.012.227-.29.99-.947.595-.513 1.1-.93 1.123-.93.025.003.09.112.148.245zm2.159.105c.927.19 1.738.36 1.802.375.093.022-.13.162-1.11.7-.675.37-1.44.79-1.7.938-.262.148-.477.26-.482.255s.023-.143.06-.307c.14-.6.053-1.35-.227-1.947a3.937 3.937 0 0 1-.15-.338c0-.043.168-.013 1.807.325zm2.528 1.132c-.047.21-.15.568-.233.8-.177.51-.825 1.832-.913 1.867-.035.015-.34-.127-.672-.313s-.815-.43-1.067-.543l-.46-.205 1.698-1.088c1.407-.902 1.7-1.072 1.715-.992.01.05-.02.263-.067.473zm1.24-.387c1.76.505 3.617 1.188 3.51 1.29-.023.02-.253.098-.51.17-1.328.377-3.175 1.015-4.04 1.395-.267.117-.5.205-.512.193s.093-.402.235-.863c.277-.908.6-2.133.6-2.29 0-.07.025-.093.087-.075l.63.18zM13.232 9.35c.402.133.87.31 1.043.398.313.158.315.16.225.258-.16.178-1.908 1.805-1.957 1.822-.025.01-.045-.238-.045-.595-.002-.62-.072-1.738-.125-1.988-.04-.182-.008-.18.86.105zm11.175.322a22.777 22.777 0 0 1-1.475 2.11c-.468.585-1.455 1.685-1.512 1.685-.023 0-.165-.178-.317-.398-.563-.803-1.215-1.498-1.788-1.902-.055-.037-.087-.08-.075-.092s.953-.357 2.082-.768c2.29-.83 3.297-1.168 3.36-1.123.005.008-.117.225-.275.488zm1.433-.107c1.58 1.103 2.655 1.995 3.045 2.527.098.135.17.25.16.258s-.517.065-1.133.125c-2.453.242-4.2.488-5.125.723a7.3 7.3 0 0 1-.457.107 6.965 6.965 0 0 1 .365-.453c1.07-1.283 2.035-2.617 2.395-3.31.095-.182.188-.332.207-.332.017-.002.26.158.543.355zm-8.857 1.367c.302.162.535.313.523.338-.023.045-2.69 1.505-2.713 1.485-.005-.005.133-.443.307-.977s.345-1.115.377-1.293l.06-.325.45.24.995.533zm-2.233.086c-.258.893-.78 2.043-1.018 2.242-.055.045-.162-.018-.515-.303-.248-.2-.5-.398-.568-.443-.065-.045-.113-.092-.102-.105.182-.182 2.308-1.895 2.317-1.867.008.018-.045.232-.115.475zm4.83 1.552c.402.268 1.293 1.065 1.245 1.115-.012.012-.918.307-2.008.65-1.09.345-2.305.735-2.7.867-.398.133-.723.238-.725.232-.005-.005.273-.32.615-.703.892-.995 1.81-2.063 2.135-2.482l.28-.363.367.197c.198.11.558.33.79.485zm-2.065-.572-.535.68c-.27.34-.915 1.17-1.44 1.842l-.953 1.225-.033-.207c-.06-.402-.275-1.185-.398-1.453l-.123-.268.605-.303a62.314 62.314 0 0 0 2.537-1.375c.385-.225.41-.235.337-.143zm-5.052 1.479c.248.127.48.293.48.345 0 .08-1.613 1.325-1.655 1.277-.01-.01.135-.297.322-.64.19-.342.38-.725.425-.855s.115-.235.15-.235c.04 0 .165.05.277.107zm1.375 1.533c.113.217.227.83.168.885-.025.023-.69.337-1.482.7s-1.82.85-2.293 1.085c-.47.235-.828.4-.793.37.035-.032.553-.465 1.152-.965 1.16-.965 2.482-2.117 2.725-2.373l.145-.152.143.137c.08.075.185.215.235.313zm-1.303-.012c-.115.102-.735.645-1.375 1.2-.64.552-1.41 1.223-1.71 1.485-.605.527-.605.527.168-.48.598-.78.91-1.07 1.768-1.645.418-.28 1.248-.748 1.328-.748.018-.002-.063.085-.178.188zm6.008.529c.032.162.07.672.087 1.128l.03.83-.192-.09c-.665-.308-2.533-1.36-2.462-1.387.407-.162 2.425-.832 2.447-.81.017.018.058.165.09.33zm-1.586 1.485c.777.457 1.42.837 1.43.845s-.093.093-.22.188c-.247.183-2.885 1.545-2.92 1.51-.01-.01.025-.238.078-.5.107-.53.205-2.11.158-2.613-.015-.177-.01-.302.015-.288.027.015.683.4 1.46.858zm-2.15-.335c.06.492-.012 1.482-.145 1.997-.158.605-.248.858-.315.88-.092.032-.668-.492-1.02-.93-.355-.44-.82-1.27-.75-1.337.043-.04 2.098-.887 2.16-.89.02-.003.053.125.07.28zm-2.52 1.238c.217.45.715 1.1 1.26 1.65.35.352.438.468.383.503-.245.165-1.338.677-2.027.948-.838.33-1.925.705-1.95.675-.01-.01.24-.465.555-1.01.682-1.185 1.545-2.86 1.545-2.997 0-.175.072-.105.235.233zm-1.289.027c-.012.035-.117.295-.23.582-.485 1.23-1.428 2.9-1.637 2.9-.162 0-.402-.973-.47-1.907l-.035-.47 1.152-.582c.635-.32 1.172-.582 1.2-.582.023-.003.033.025.02.06zm7.694 1.138c.005.707-.293 2.42-.45 2.593-.065.073-.797-.198-1.455-.538-.59-.305-1.56-.907-1.56-.968 0-.017.148-.093.332-.17.35-.148 1.978-1.017 2.667-1.425l.398-.235.035.18c.012.098.03.355.032.563zm-10.857.818c.067.56.24 1.245.455 1.79.088.223.15.415.14.425-.085.078-3.547 1.03-4.005 1.102l-.218.035.032-.168c.048-.238.383-.922.633-1.293.31-.46 1.077-1.23 1.585-1.587.378-.267 1.287-.797 1.315-.767.003.003.032.21.063.462zm7.855 1.18c1.07.512 1.475.69 1.987.867l.392.135-.247.125c-1.402.71-3.883 1.723-4.525 1.848-.143.027-.162.02-.135-.05.11-.288 1.59-3.345 1.617-3.345.018-.003.43.19.91.42zm-1.883-.116c-.075.36-.482 1.527-.72 2.058-.205.46-.68 1.357-.765 1.442-.037.038-.883-.44-1.283-.725-.45-.32-1.435-1.27-1.408-1.358.01-.032.61-.262 1.332-.512 1.523-.525 2.375-.843 2.623-.97.24-.125.26-.117.22.065zm4.258 1.613c-.015.105-.1.565-.192 1.03-.29 1.457-.642 2.453-.867 2.453-.31 0-2.433-.515-3.117-.758-.465-.165-.867-.352-1-.47-.082-.073-.04-.098.57-.348 1.963-.8 4.225-1.82 4.47-2.015.142-.113.165-.098.137.108zm-9.93.445c-.223.398-.68 1.055-1.55 2.23l-.742 1-.223-.16c-.313-.223-.808-.762-1.015-1.105-.223-.367-.375-.82-.393-1.165l-.015-.267.367-.038c.497-.05 1.888-.337 2.88-.598.45-.117.825-.207.835-.2.008.01-.057.145-.145.302zm2.158 1.027c.248.177.588.402.762.505l.318.185-.143.06c-.08.032-1.232.453-2.565.935-2.275.823-2.425.87-2.487.785-.037-.05-.063-.102-.058-.12s.62-.81 1.367-1.767l1.357-1.738.5.418c.28.233.7.56.947.738zm.559 2.613-.932 1.39c-.037.05-.832-.137-1.428-.335-.625-.21-1.395-.6-1.695-.858l-.218-.188.49-.133c2.007-.547 4.662-1.25 4.675-1.24.01.003-.395.62-.893 1.363zm2.39-1.125c1.063.365 2.033.573 3.29.707l.348.038-.938.337c-2.34.845-4.235 1.438-5.19 1.622-.268.052-.512.095-.54.095s.165-.262.428-.58c.715-.872 1.49-1.865 1.695-2.17.1-.148.2-.273.223-.273.023.003.328.1.685.223zm3.488 1.97c-.402 1.04-.698 1.672-.803 1.712-.2.078-2.963-.33-3.805-.558-.56-.152-.918-.3-.813-.337.04-.015.44-.108.893-.21 1.463-.33 3.692-1.008 4.615-1.402a.992.992 0 0 1 .233-.08c.005.008-.137.4-.32.875z"/>
    </symbol>
    <symbol id="icon--linkedin" viewBox="0 0 32 32">
      <path d="M29 .75H2.977A2.227 2.227 0 0 0 .75 2.949v26.106a2.227 2.227 0 0 0 2.227 2.195h26.041a2.233 2.233 0 0 0 2.232-2.201V2.942A2.233 2.233 0 0 0 29.018.749h-.019H29zm-19.207 26H5.266V12.182h4.527zm-2.25-16.553H7.54a2.625 2.625 0 1 1 2.625-2.625 2.625 2.625 0 0 1-2.625 2.62h-.011.001zM26.75 26.75h-4.527v-7.087c0-1.688-.03-3.86-2.352-3.86s-2.718 1.84-2.718 3.75v7.197h-4.52V12.182h4.34v2h.06c.605-1.145 2.08-2.353 4.282-2.353 4.585-.01 5.435 3.008 5.435 6.92z"/>
    </symbol>
    <symbol id="icon--jquery" viewBox="0 0 32 32">
      <path d="M16.321 26.732c-.207-.047-.408-.111-.61-.171l-.152-.046a14.768 14.768 0 0 1-.715-.23l.127.039-.081-.029a14.453 14.453 0 0 1-.639-.234l.12.042-.146-.057a15.283 15.283 0 0 1-.559-.233l-.112-.049c-.3-.131-.455-.205-.61-.28l.137.061-.136-.066c-.123-.06-.244-.123-.365-.186-.081-.043-.164-.083-.244-.128-.22-.117-.363-.198-.504-.282l.066.036-.148-.082a15.86 15.86 0 0 1-.649-.397l.079.048-.154-.102a12.76 12.76 0 0 1-.453-.301l.047.031-.131-.092a18.7 18.7 0 0 1-.446-.321l.062.044-.17-.128a16.724 16.724 0 0 1-.378-.295l.032.025-.154-.124a22.625 22.625 0 0 1-.457-.385l.026.022-.047-.04a20.265 20.265 0 0 1-.464-.422l.011.01-.127-.123c-.11-.105-.219-.211-.325-.319l-.128-.127c-.129-.132-.26-.27-.388-.409l-.012-.013-.019-.021a15.348 15.348 0 0 1-.386-.438l-.019-.023-.106-.126c-.075-.09-.171-.207-.265-.325l-.027-.035-.107-.133a17.21 17.21 0 0 1-.299-.394l-.038-.054C3.22 15.727 2.129 10.012 4.557 5.319l-2.153 2.73c-2.757 3.963-2.414 9.119-.308 13.33.05.101.103.2.154.299l.099.19.061.109.11.197c.066.115.132.23.201.345l.115.189c.076.123.154.244.233.365l.099.154c.11.164.222.327.338.488l.01.012.057.077c.1.138.204.275.308.41l.116.148c.093.117.188.234.285.35l.109.13c.149.176.279.323.411.469l-.014-.016.008.008.016.017c.142.154.273.292.406.428l-.003-.004.129.13c.106.107.213.211.322.316l.131.125c.145.137.292.271.441.402l.007.006.077.066c.131.114.266.227.401.338l.166.132c.11.088.222.175.334.261l.178.136c.124.091.249.181.375.269l.174.123c.119.082.242.162.364.241l.158.105c.187.119.377.236.569.349l.158.089c.051.034.191.113.332.191l.096.049c.078.042.158.082.236.122.102.053.203.107.306.159l.196.095c.16.076.322.152.485.224l.102.046c.079.04.265.119.453.195l.112.04.138.054c.176.068.354.135.534.198l.067.023c.197.069.395.133.595.195l.144.043c.204.061.405.134.614.173 13.335 2.432 17.208-8.013 17.208-8.013-3.253 4.238-9.028 5.357-14.499 4.112zm-4.804-10.808c.299.428.63.938 1.026 1.282.15.164.296.316.446.463l.002.002.118.116c.143.139.292.278.444.413l.013.012.018.016.005.005c.154.135.328.279.505.42l.029.022.121.095c.148.115.329.249.514.379l.044.029.016.012c.084.058.17.112.255.168l.12.08c.136.087.274.172.414.254l.059.034c.121.07.243.138.366.204l.13.068c.085.044.169.09.256.133l.039.017c.175.087.353.17.534.249l.118.049c.062.031.207.091.353.148l.085.029.188.069c.133.049.267.095.402.14l.182.058c.192.059.381.135.581.168 10.296 1.706 12.672-6.221 12.672-6.221-2.142 3.086-6.292 4.558-10.72 3.409-.285-.073-.48-.131-.672-.193l.089.025-.175-.057a8.875 8.875 0 0 1-.488-.167l.08.026-.184-.069a10.118 10.118 0 0 1-.532-.213l.093.036-.118-.05c-.255-.11-.431-.193-.605-.281l.068.031c-.091-.044-.18-.091-.27-.137l-.155-.08a8.68 8.68 0 0 1-.392-.221l.051.028-.081-.046a10.19 10.19 0 0 1-.459-.28l.047.028-.125-.083a11.58 11.58 0 0 1-.324-.213l.057.037c-.231-.16-.412-.294-.59-.432l.033.025-.125-.099c-1.938-1.53-3.474-3.621-4.205-5.993-.765-2.459-.6-5.22.726-7.46l-1.629 2.3c-1.994 2.87-1.886 6.711-.33 9.746.293.572.586 1.054.909 1.513l-.027-.04zm10.852-3.55c.085.031.169.059.256.088l.113.036c.121.038.241.082.367.106 5.685 1.098 7.227-2.917 7.637-3.508-1.351 1.945-3.62 2.412-6.406 1.736a7.098 7.098 0 0 1-.674-.208 8.044 8.044 0 0 1-.85-.354l.049.022a8.212 8.212 0 0 1-1.423-.871l.02.015C18.966 7.545 17.418 3.938 19.044 1l-.88 1.213c-1.175 1.73-1.291 3.878-.475 5.789.86 2.028 2.623 3.619 4.68 4.373z"/>
    </symbol>
    <symbol id="icon--javascript" viewBox="0 0 32 32">
      <path d="M.5.25V31.5h31.25V.25H.5zm16.53 26.628c-.461.937-1.342 1.553-2.362 1.85-1.568.36-3.067.155-4.183-.515-.746-.458-1.329-1.163-1.725-1.975l2.38-1.457c.021.009.083.122.167.268.303.509.565.869 1.08 1.121.505.172 1.615.283 2.044-.607.262-.453.178-1.907.178-3.516 0-2.529.011-5.047.011-7.547h2.927c0 2.75.015 5.355 0 8.038.006 1.645.149 3.111-.517 4.34zm12.143-.827c-1.018 3.48-6.691 3.593-8.957 1.294-.479-.541-.779-.824-1.065-1.449 1.205-.693 1.205-.693 2.377-1.371.637.979 1.226 1.517 2.285 1.737 1.437.175 2.883-.318 2.558-1.845-.333-1.247-2.942-1.55-4.718-2.883-1.803-1.211-2.225-4.153-.744-5.834.494-.622 1.336-1.086 2.219-1.309l.922-.119c1.77-.036 2.877.432 3.689 1.339.226.229.41.476.756 1.011-.943.601-.94.595-2.291 1.47-.288-.622-.767-1.012-1.273-1.181-.785-.238-1.776.021-1.982.851-.071.256-.056.494.057.916.318.726 1.386 1.041 2.344 1.482 2.758 1.119 3.689 2.318 3.918 3.745.221 1.229-.053 2.026-.095 2.145z"/>
    </symbol>
    <symbol id="icon--html" viewBox="0 0 32 32">
      <path d="m2.258.5 2.501 28.023 11.224 3.1 11.255-3.097L29.742.499H2.258zM24.54 7.135l-.157 1.793-.069.822H11.148l.314 3.5h12.539l-.084.868-.808 9.03-.059.567-7.058 1.942-7.044-1.856-.478-5.302h3.454l.245 2.73 3.833 1.02v-.137l3.839-.969.401-4.395H8.317l-.846-9.529-.082-.971h17.235l-.082.885z"/>
    </symbol>
    <symbol id="icon--gulp" viewBox="0 0 32 32">
      <path d="M9.241 8.865c4.515 1.126 8.97 1.12 13.522.017-.053.607-.089 1.194-.157 1.777-.228 1.97-.453 3.94-.709 5.906-.105.805-.894.972-1.472 1.345.257-.339.536-.664.764-1.021.209-.328.513-.698.112-1.077-.387-.367-.783-.158-1.151.079-.117.075-.215.178-.323.269l-.354-.375c-.152.17-.386.317-.443.514-.233.813-.871 1.193-1.636 1.537.046-.192.07-.394.143-.576.434-1.079.896-2.146 1.307-3.234.077-.205-.031-.481-.054-.725-.197.155-.488.269-.574.471-.502 1.18-.963 2.377-1.42 3.575-.144.379-.363.594-.874.575.108-.362.194-.681.3-.992.071-.208.218-.4.245-.61.027-.208-.055-.43-.088-.645-.168.13-.389.227-.492.396-.248.409-.406.873-.668 1.271-.16.244-.445.405-.673.604l-.24-.145.453-1.275c.097-.275.476-.618.058-.822-.424-.206-.55.267-.675.563-.203.478-.416.962-.53 1.465-.057.253.004.684.172.799.21.143.599.099.886.03.236-.056.437-.264.674-.418.106.566.43.659.941.428.154-.07.377.034.565.017.445-.039.887-.102 1.323-.154-.154.339-.381.779-.554 1.241-.108.289-.433.695.029.886.431.177.542-.288.671-.591.296-.701.549-1.423.88-2.107.198-.409.487-.782.782-1.13.145-.171.399-.25.603-.371l.123.148c-.285.373-.611.724-.841 1.129-.142.247-.138.578-.199.872.32.034.672.167.951.076.383-.125.711-.421 1.128-.685-.126 1.144-.246 2.242-.369 3.34-.063.557-.153 1.113-.194 1.671-.044.607-.291 1.013-.909 1.179l.106-.025a15.128 15.128 0 0 1-5.163.501 29.794 29.794 0 0 1-3.448-.444c-.973-.188-1.135-.444-1.231-1.432-.124-1.294-.229-2.591-.331-3.746l1.81-.833c-.076.311-.185.642-.227.982-.019.15.098.316.154.475.138-.088.361-.149.401-.27l-.197.657c.41-1.19.797-2.391 1.331-4.264.038-.13-.144-.324-.224-.489-.167.141-.434.253-.483.427-.227.803-.639 1.476-1.303 1.97-.204.152-.498.184-.751.271-.064-.259-.216-.533-.178-.776.198-1.259.719-2.379 1.643-3.273.496-.479.766-.414 1.214.141.105.13.314.178.475.263.048-.215.185-.458.128-.639-.214-.676-1.08-1.034-1.74-.653a4.97 4.97 0 0 0-1.339 1.169c-.396.49-.659 1.088-1.021 1.712l-.659-6.95zm1.954 15.342c3.08.87 6.217.846 9.431.048-1.148 1.691-.671 3.595-.885 5.39-.044.369-.108.632-.449.831-2.291 1.334-4.557 1.123-6.802-.097-.152-.083-.275-.342-.294-.531-.13-1.296-.177-2.602-.361-3.889-.087-.605-.42-1.174-.639-1.753zm7.748-15.02c1.09-.105 2.168-.361 3.246-.573.203-.04.384-.194.575-.296-.252-.221-.47-.328-.697-.354-1.133-.134-2.269-.237-3.401-.377-.171-.021-.476-.232-.463-.271.33-.995.314-2.121 1.064-2.96.947-1.06 1.904-2.111 2.854-3.162-.706-.76-.716-.761-1.356-.096-.362.376-.693.787-1.085 1.128-1.453 1.26-2.474 2.751-2.673 4.718-.046.451-.294.614-.767.621-1.564.023-3.13.066-4.69.168-.773.051-1.537.249-2.305.381l-.007.287c.481.148.952.343 1.443.437 2.736.524 5.498.614 8.264.348zm-.874-.687c-.619.5-1.131.5-1.625 0h1.625z"/>
    </symbol>
    <symbol id="icon--github" viewBox="0 0 32 32">
      <path d="M16 1.276C7.663 1.276.903 8.035.903 16.373c0 6.671 4.326 12.329 10.324 14.326.754.14 1.031-.328 1.031-.726 0-.36-.014-1.549-.021-2.811-4.2.913-5.086-1.781-5.086-1.781-.687-1.745-1.676-2.209-1.676-2.209-1.37-.937.103-.918.103-.918 1.516.106 2.314 1.556 2.314 1.556 1.347 2.308 3.532 1.64 4.393 1.255.136-.976.527-1.642.959-2.019-3.353-.381-6.878-1.676-6.878-7.461 0-1.648.59-2.995 1.556-4.053-.157-.38-.674-1.915.146-3.995 0 0 1.268-.406 4.152 1.548a14.461 14.461 0 0 1 3.779-.509c1.282.006 2.575.174 3.782.508 2.881-1.953 4.148-1.548 4.148-1.548.822 2.079.305 3.615.148 3.995.968 1.057 1.554 2.404 1.554 4.053 0 5.799-3.532 7.075-6.893 7.449.542.468 1.024 1.387 1.024 2.796 0 2.02-.017 3.646-.017 4.143 0 .402.272.872 1.037.724 5.995-1.998 10.316-7.655 10.316-14.323 0-8.338-6.76-15.097-15.097-15.097z"/>
      <path d="M6.621 22.951c-.033.075-.151.098-.259.046-.11-.049-.171-.151-.136-.227.032-.078.151-.099.26-.047.11.049.173.152.134.227zm.611.683c-.072.067-.213.036-.308-.07-.099-.105-.117-.246-.044-.314.074-.067.211-.035.31.07.098.107.118.246.043.314zm.596.869c-.093.064-.244.004-.338-.13-.093-.134-.093-.296.003-.36.093-.064.242-.006.338.127.092.136.092.297-.003.363zm.815.84c-.082.091-.259.067-.388-.058-.132-.122-.168-.295-.086-.386.084-.091.261-.066.391.058.132.122.171.295.083.386zm1.125.488c-.037.118-.206.172-.377.122-.171-.052-.283-.19-.248-.309s.206-.175.378-.121c.171.052.283.189.247.309zm1.236.09c.004.125-.141.227-.32.23-.181.004-.327-.097-.329-.219 0-.126.142-.227.322-.231.179-.003.326.097.326.22zm1.149-.195c.021.121-.103.246-.281.279-.175.032-.338-.043-.36-.163-.021-.125.105-.249.28-.282.178-.031.338.043.361.166z"/>
    </symbol>
    <symbol id="icon--git" viewBox="0 0 32 32">
      <path d="M31.186 14.595 17.407.817a2.033 2.033 0 0 0-2.874 0l-2.861 2.861 3.63 3.629a2.411 2.411 0 0 1 3.19 2.286c0 .283-.049.556-.139.808l.005-.017 3.498 3.498a2.417 2.417 0 1 1 .788 4.703 2.408 2.408 0 0 1-1.71-.709 2.413 2.413 0 0 1-.52-2.646l-.006.016-3.262-3.262v8.585a2.418 2.418 0 1 1-2.78 3.878c-.944-.946-1.022-2.476-.078-3.421.233-.233.464-.41.714-.527v-8.665a2.551 2.551 0 0 1-.714-.528c-.715-.715-.849-1.765-.482-2.644l-3.558-3.578L.81 14.531a2.033 2.033 0 0 0 .005 2.875l13.781 13.778a2.034 2.034 0 0 0 2.876 0l13.715-13.715a2.034 2.034 0 0 0 .001-2.875z"/>
    </symbol>
    <symbol id="icon--firebase" viewBox="0 0 32 32">
      <path d="m6.838 20.13 2.67-17.11c.092-.583.875-.723 1.15-.2l2.87 5.37-6.69 11.94zm18.985 4.158-2.547-15.76a.618.618 0 0 0-1.043-.338L6.178 24.288l8.885 4.988a1.853 1.853 0 0 0 1.804-.004l-.009.005 8.965-4.988zM18.61 10.537l-2.058-3.912a.612.612 0 0 0-1.09 0L6.425 22.738l12.185-12.2z"/>
    </symbol>
    <symbol id="icon--facebook" viewBox="0 0 32 32">
      <path d="M29.105 1.268H2.895c-.897 0-1.625.728-1.625 1.625v26.212c0 .897.728 1.625 1.625 1.625H17V19.323h-3.835v-4.447H17v-3.28c0-3.805 2.325-5.878 5.72-5.878h.112c1.169 0 2.322.064 3.458.188l-.14-.012v3.978h-2.348c-1.848 0-2.205.877-2.205 2.165v2.84h4.402l-.573 4.447h-3.83v11.41h7.5a1.627 1.627 0 0 0 1.625-1.625V2.893c0-.895-.723-1.621-1.617-1.625z"/>
    </symbol>
    <symbol id="icon--dotnetcore" viewBox="0 0 32 32">
      <path d="M15.299 0h1.238c3.23.134 6.422 1.222 9.011 3.169a16.005 16.005 0 0 1 5.432 7.226c.61 1.597.916 3.295 1.02 4.998v1.053c-.104 2.823-.916 5.63-2.433 8.02-1.7 2.724-4.23 4.933-7.182 6.207-1.8.801-3.896 1.285-6.1 1.326h-.551A16.003 16.003 0 0 1 1.153 21.972C.473 20.297.11 18.504 0 16.702v-1.239c.126-3.598 1.488-7.152 3.853-9.874A16.057 16.057 0 0 1 11.222.733c1.321-.417 2.697-.632 4.077-.734zM6.298 9.381c-.008 3.038-.003 6.076-.003 9.114.357.003.715.003 1.073.003-.019-2.608.025-5.216-.027-7.823.12.227.229.46.366.677 1.551 2.377 3.068 4.774 4.619 7.149.434-.006.869-.006 1.303.001-.001-3.04-.002-6.08.001-9.12a84.136 84.136 0 0 0-1.08-.003h.017c.019 2.58-.034 5.16.031 7.737-1.627-2.588-3.275-5.161-4.924-7.736a98.236 98.236 0 0 0-1.422.002h.043zm9.711-.003c-.032 3.04-.001 6.08-.012 9.119 1.617-.004 3.235.006 4.852-.005a20.72 20.72 0 0 1 .007-1.019l-.001.032c-1.253-.004-2.507.002-3.761-.005-.018-1.052-.001-2.107-.01-3.159 1.099-.02 2.198.003 3.295-.012-.003-.319-.003-.639-.005-.958-1.097.035-2.193-.014-3.291.003.003-1.006.005-2.013.005-3.019 1.175 0 2.349-.005 3.523.003-.002-.325 0-.652.004-.976-1.536-.004-3.072-.002-4.608-.002zm5.65.014.002.947c.872-.01 1.743.027 2.615.009-.006 2.716.001 5.429-.003 8.144a9.36 9.36 0 0 0 1.098-.023c-.03-1.498.029-2.997-.039-4.494.017-.675-.017-1.348.029-2.023.026-.535-.069-1.069-.009-1.604.879.012 1.759.004 2.637.004l-.001-.187c0-.271.007-.541.021-.809l-.002.037a279.942 279.942 0 0 0-6.349-.002zM3.388 17.273c-.494.227-.526 1.006-.037 1.257.43.295 1.076-.093 1.057-.602.033-.501-.572-.922-1.019-.654zm7.307 3.823c-1.069.867-1.056 2.799.125 3.563.667.424 1.526.336 2.23.054l.012-.465c-.668.349-1.602.42-2.169-.152-.741-.809-.574-2.317.403-2.869.553-.291 1.227-.206 1.771.06-.002-.165-.001-.33 0-.495-.774-.275-1.73-.26-2.374.305zm4.302.677c-.473.055-.94.305-1.158.741-.313.624-.277 1.467.216 1.99.509.574 1.486.58 2.045.074.606-.577.675-1.617.189-2.291-.287-.407-.818-.546-1.292-.514zm4.471.681c-.415.721-.333 1.813.399 2.303.546.305 1.233.208 1.768-.077a8.88 8.88 0 0 1 .008-.462c-.422.267-.984.464-1.453.194-.327-.18-.426-.564-.479-.906.719-.01 1.436-.02 2.156-.018-.019-.457-.029-.974-.363-1.327-.55-.608-1.661-.414-2.038.294zm-2.103-.584v3.002l.493.001c.006-.549-.01-1.099.006-1.648.004-.317.132-.64.371-.854.2-.151.471-.067.7-.061a37.772 37.772 0 0 1-.006-.476c-.448-.099-.834.163-1.061.529a38.01 38.01 0 0 1-.013-.474 77.407 77.407 0 0 1-.491-.02z"/>
      <path d="M14.69 22.306c.413-.201 1.006-.102 1.236.325.262.472.257 1.096-.034 1.553-.38.572-1.382.447-1.631-.186-.252-.564-.154-1.371.429-1.692zm5.07.798c.012-.393.286-.784.681-.87.244-.041.524.002.693.198.168.178.203.428.245.66-.54.003-1.08-.008-1.62.012z"/>
    </symbol>
    <symbol id="icon--dotnet" viewBox="0 0 32 32">
      <path d="M11.322 12.39c1.104 3.377 1.523 9.4 4.752 9.4.245 0 .494-.024.744-.072-2.935-.684-3.283-6.642-5.074-9.728-.151.138-.288.268-.423.401l.002-.002z"/>
      <path d="M11.743 11.991c1.791 3.085 2.139 9.043 5.074 9.728.268-.051.501-.116.726-.198l-.032.01c-2.635-1.291-3.363-7.076-5.397-9.862-.123.102-.247.21-.37.321z"/>
      <path d="M14.323 10.156c-.245 0-.494.024-.744.072-.653.123-1.317.405-1.986.83.182.181.357.387.52.612.681-.565 1.357-.982 2.03-1.233.213-.083.467-.156.729-.206l.028-.005a2.276 2.276 0 0 0-.57-.07h-.008zM19.567 20.341c.297-.238.561-.47.814-.714l-.004.004c-1.122-3.361-1.524-9.471-4.775-9.471-.232 0-.467.022-.701.065 2.962.737 3.341 7.181 4.666 10.116z"/>
      <path d="M14.901 10.226a2.276 2.276 0 0 0-.57-.07h-.008l1.278.005c-.232 0-.467.021-.701.066zM19.51 21.055a4.864 4.864 0 0 1-.36-.388l-.006-.008a6.739 6.739 0 0 1-1.633.872 2.516 2.516 0 0 0 1.128.259c.608 0 1.088-.072 1.497-.268a2.854 2.854 0 0 1-.625-.467z"/>
      <path d="M14.143 10.437c2.653 1.387 2.883 7.671 5 10.222.142-.1.282-.206.423-.318-1.325-2.935-1.704-9.38-4.665-10.116a4.565 4.565 0 0 0-.758.211z"/>
      <path d="M12.113 11.669c2.034 2.785 2.762 8.571 5.397 9.862a6.72 6.72 0 0 0 1.633-.872c-2.117-2.551-2.348-8.835-5-10.222-.673.251-1.349.668-2.03 1.232zM10.021 12.309c-.319.721-.645 1.668-1.038 2.905.783-1.103 1.563-2.053 2.339-2.824a8.168 8.168 0 0 0-.367-.954l.022.053c-.352.271-.663.54-.96.824l.004-.004z"/>
      <path d="M11.259 11.28c-.094.067-.188.136-.283.208.124.27.238.573.345.902.132-.13.27-.26.409-.388l.012-.011a5.479 5.479 0 0 0-.492-.721l.008.011z"/>
      <path d="M11.593 11.057c-.111.07-.222.145-.334.223.174.214.333.453.484.711.124-.112.247-.22.37-.322a5.1 5.1 0 0 0-.52-.612zM29.688 9.899c-1.5 5.786-4.634 10.434-7.261 11.605h-.005l-.142.061-.017.007-.04.015-.018.008-.093.033-.033.011-.032.011-.028.009-.056.017-.024.006-.064.017-.041.011-.05.011c.119.044.242.066.376.066 2.491 0 5.003-4.465 9.159-11.889l-1.632.001zM8.441 10.391l.005-.004.006-.004h.003l.04-.015.008-.004.011-.004.043-.015h.002l.096-.034.014-.004.041-.012.019-.006.041-.012.016-.004.137-.036.019-.004.04-.008.02-.006.04-.008h.009l.083-.015h.017l.039-.007.022-.004.037-.005.02-.004.089-.008a3.013 3.013 0 0 0-.265-.014h-.001c-2.806 0-6.671 5.205-8.412 11.947h.336c.266-.43.77-1.352 1.259-2.282l.256-.534c1.22-4.775 3.704-8.031 5.91-8.894zM10.021 12.309c.292-.28.604-.549.929-.8l.027-.02a4.558 4.558 0 0 0-.239-.461l.011.021c-.257.312-.491.723-.728 1.261z"/>
      <path d="M10.251 10.43c.183.153.348.365.498.618.047-.058.095-.112.145-.162a2.816 2.816 0 0 0-.662-.467l-.016-.007.03.014.005.004zM2.532 19.285c2.558-4.93 3.77-8.05 5.91-8.894-2.206.864-4.691 4.12-5.91 8.894z"/>
      <path d="M10.893 10.886a2.56 2.56 0 0 0-.145.162 4.4 4.4 0 0 1 .228.44c.095-.072.189-.141.282-.208a3.907 3.907 0 0 0-.363-.392l-.002-.002zM3.693 22.079l-.046.006h-.009l-.039.004h-.006l-.094.006h-.01c2.589-.073 3.773-1.369 4.36-3.249.446-1.425.813-2.626 1.134-3.634-1.085 1.526-2.174 3.346-3.269 5.385-.528.983-1.331 1.393-2.02 1.48z"/>
      <path d="M3.693 22.078c.689-.088 1.492-.498 2.02-1.481 1.095-2.038 2.185-3.858 3.269-5.384.394-1.237.72-2.184 1.038-2.905-2.16 2.056-4.328 5.474-6.327 9.769zM2.532 19.285a74.669 74.669 0 0 1-1.767 3.296l.251-.48h.976c.144-1.095.333-2.05.576-2.982l-.037.166z"/>
      <path d="m9.268 10.177-.021.004-.037.005-.06.011-.017.004-.083.014h-.009l-.04.008-.02.005-.039.008-.018.005-.137.036-.016.005-.041.012-.019.005-.041.012-.015.004-.095.034-.043.015-.018.008-.04.015-.014.007c-2.139.844-3.351 3.964-5.91 8.894a21.447 21.447 0 0 0-.526 2.695l-.013.121h.137l.939-.004h.431l.094-.006h.006l.039-.004h.009l.046-.006c2-4.296 4.168-7.713 6.327-9.769.238-.538.472-.949.728-1.26a2.405 2.405 0 0 0-.497-.619l-.005-.004-.03-.015-.03-.015-.029-.014-.035-.014-.027-.012-.057-.024-.024-.009-.042-.017-.023-.008-.059-.02h-.005l-.068-.019-.015-.005-.07-.02a1.93 1.93 0 0 0-.13-.029l-.012-.002-.015-.004-.062-.01-.012-.004-.073-.01h-.013l-.056-.006-.089.008zM23.828 13.102c-.492 1.577-.891 2.877-1.238 3.948 1.351-1.859 2.681-4.197 3.948-6.895-1.478.464-2.266 1.527-2.71 2.947zM22.633 21.405a5.49 5.49 0 0 1-.206.099c2.627-1.172 5.761-5.819 7.261-11.605h-.304c-3.447 6.158-4.555 10.28-6.751 11.507zM20.917 20.888c.572-.698 1.037-1.884 1.673-3.838-.733 1.007-1.471 1.873-2.21 2.579l-.004.006c.161.483.338.909.54 1.253zM20.917 20.888a2.34 2.34 0 0 1-.782.634c.232.128.503.218.791.252l.01.001.131.012h.008l.063.004h.214l.024-.004.047-.004h.023l.051-.006h.004l.016-.004.055-.009h.016l.061-.01h.01l.123-.026c-.339-.124-.623-.417-.867-.834z"/>
      <path d="M16.074 21.79c.245 0 .494-.024.743-.072.268-.051.501-.115.725-.197l-.032.01a2.562 2.562 0 0 0 1.128.259h-2.564zm2.564 0c.607 0 1.088-.072 1.497-.268.232.128.503.218.791.252l.01.001.131.011h.008l.063.004h-2.5zM21.213 21.79h.14l.024-.004.048-.004h.023l.051-.006h.004l.015-.004.055-.008.017-.004.062-.01h.01l.123-.026c.119.044.242.066.376.066l-.947.004v-.005zM20.378 19.635v-.004c-.249.24-.513.472-.787.692l-.023.018a9.178 9.178 0 0 1-.395.299l-.028.019c.119.142.24.275.367.396.193.187.399.345.625.467a2.342 2.342 0 0 0 .782-.634 6.757 6.757 0 0 1-.539-1.253z"/>
      <path d="M28.421 9.899h-1.53l-.242.012-.113.242c-1.267 2.698-2.597 5.036-3.948 6.895-.635 1.954-1.101 3.141-1.672 3.838.244.417.529.71.866.834l.026-.006h.006l.019-.004.043-.011.025-.007.038-.01.023-.007.056-.017.028-.009.032-.012.032-.01.026-.01.066-.023.018-.007.041-.016.017-.006.142-.061h.005c.068-.03.137-.064.205-.099 2.196-1.227 3.305-5.349 6.752-11.507l-.962-.001zM9.358 10.169l.016.004.04.004h.014l.073.009.012.004.062.01.015.004.142.031.013.004.057.016.016.005.068.019.005.004.059.02.023.007.043.017.024.008.056.024.027.012.034.015.03.014.03.015c.245.12.47.28.678.475.077-.081.157-.153.241-.219a2.652 2.652 0 0 0-1.776-.499z"/>
      <path d="M10.893 10.886c.128.119.25.251.366.394.112-.078.223-.153.334-.223a3.562 3.562 0 0 0-.449-.383l-.011-.007a2.22 2.22 0 0 0-.24.219zM9.292 10.185l.208-.009c.596 0 1.112.184 1.567.507.481-.38 1.063-.512 1.87-.512H9.026l.265.014z"/>
      <path d="M12.938 10.172c-.808 0-1.388.133-1.87.512.159.112.313.244.459.39.67-.425 1.333-.708 1.986-.83.25-.047.498-.071.743-.071l-1.319-.001zM22.59 17.05c.348-1.071.745-2.371 1.238-3.948.444-1.421 1.231-2.483 2.709-2.947l.114-.242c-2.409.144-3.535 1.37-4.101 3.184-.991 3.168-1.591 5.222-2.169 6.531.738-.706 1.476-1.572 2.209-2.578z"/>
    </symbol>
    <symbol id="icon--css" viewBox="0 0 32 32">
      <path d="m2.19.25 2.514 28.221 11.28 3.145 11.311-3.157L29.811.25H2.191zm22.398 6.465-.837 9.401.003.051-.003.117v-.001l-.595 6.573-.066.584-7.096 1.966-7.078-1.972-.479-5.435h3.471l.246 2.764L16 21.807l3.861-1.057.408-4.5h-8.071l-.069-.761-.158-1.782-.083-.957h8.687l.316-3.5H7.659l-.069-.76-.157-1.783-.083-.957h17.32l-.083.965z"/>
    </symbol>
    <symbol id="icon--csharp" viewBox="0 0 32 32">
      <path d="m29.375 8.375.075-.05c-.15-.275-.375-.525-.6-.65L16.775.725C16.575.6 16.3.55 16 .55s-.575.075-.775.175l-12 6.975c-.425.25-.725.875-.725 1.35v13.925c0 .275.05.575.225.85l-.05.025c.125.2.3.375.475.475L15.2 31.3c.2.125.475.175.775.175s.575-.075.775-.175l12-6.975c.425-.25.725-.875.725-1.35V9.025c.025-.2 0-.425-.1-.65zM16 25.875c-5.45 0-9.875-4.425-9.875-9.875S10.55 6.125 16 6.125c3.675 0 6.875 2.025 8.575 5L21.325 13A6.099 6.099 0 0 0 16 9.875c-3.375 0-6.125 2.75-6.125 6.125s2.75 6.125 6.125 6.125a6.127 6.127 0 0 0 5.325-3.1l3.225 1.9c-1.7 2.95-4.9 4.95-8.55 4.95zM28.75 15.5h-.8l-.225 1h1.025v1.25H27.5l-.3 1.5h-1.225l.3-1.5h-.95l-.3 1.5h-1.2l.3-1.5H23.5V16.5h.875l.225-1h-1.1v-1.25h1.325l.3-1.5h1.225l-.3 1.5H27l.3-1.5h1.2l-.3 1.5h.55v1.25zm-3.175 1h.95l.225-1h-.95z"/>
    </symbol>
    <symbol id="icon--azure" viewBox="0 0 32 32">
      <path d="M10.996 1.163c.647 0 1.197.416 1.397.995l.003.01 8.977 26.599a1.478 1.478 0 0 1-1.4 1.951h-.001 10.345c.492 0 .928-.242 1.197-.612l.003-.004a1.468 1.468 0 0 0 .196-1.346l.003.01-8.977-26.599a1.48 1.48 0 0 0-1.4-1.006zm-.334.12a1.48 1.48 0 0 0-1.399.997l-.003.01L.284 28.888a1.477 1.477 0 0 0 1.4 1.95h7.223c.31 0 .611-.102.863-.278.248-.18.436-.429.536-.719l.003-.01 1.755-5.178-3.353-3.214c-.062-.068-.338-.569-.092-1 .277-.415.739-.415.739-.415h4.321l2.268-6.536-3.878-11.407c-.011-.051-.229-.341-.57-.57s-.836-.227-.836-.227zm-1.22 18.935h-.001a.681.681 0 0 0-.464 1.179l9.457 8.828c.275.258.625.408 1.002.408 0 0 .32.017.514-.008.454-.068.881-.442 1.023-.598.364-.485.198-1.238.198-1.238l-2.863-8.57z"/>
    </symbol>
    <symbol id="icon--angular" viewBox="0 0 32 32">
      <path d="M13.216 16h5.82l-3.094-6.469zM15.953.257 1.139 5.47 3.48 24.879l12.489 6.864 12.553-6.957 2.34-19.409L15.953.256zM12.011 18.75l-1.816 4.544-3.395.014 9.152-20.27L15.934 3h-.016v-.033l.016.033h.035L16 2.931V3h-.031l-.017.038 9.547 20.354-3.268-.072-2.011-4.645-4.293.02z"/>
    </symbol>
    <symbol id="icon--linkedin" viewBox="0 0 32 32">
      <path d="M29 .75H2.977A2.227 2.227 0 0 0 .75 2.949v26.106a2.227 2.227 0 0 0 2.227 2.195h26.041a2.233 2.233 0 0 0 2.232-2.201V2.942A2.233 2.233 0 0 0 29.018.749h-.019H29z"/>
      <path d="M5.265 12.182h4.528V26.75H5.266zM7.53 4.933a2.625 2.625 0 1 1-2.625 2.625v-.003A2.624 2.624 0 0 1 7.53 4.933zm5.103 7.249h4.34v2h.06c.605-1.145 2.08-2.353 4.282-2.353 4.585-.01 5.435 3.008 5.435 6.92v8h-4.527v-7.087c0-1.688-.03-3.86-2.352-3.86s-2.718 1.84-2.718 3.75v7.197h-4.52z"/>
    </symbol>
  </defs>
</svg>
